<?xml version="1.0" encoding="UTF-8" standalone="no"?>
<!-- Created with Inkscape (http://www.inkscape.org/) -->

<svg
   xmlns:dc="http://purl.org/dc/elements/1.1/"
   xmlns:cc="http://creativecommons.org/ns#"
   xmlns:rdf="http://www.w3.org/1999/02/22-rdf-syntax-ns#"
   xmlns:svg="http://www.w3.org/2000/svg"
   xmlns="http://www.w3.org/2000/svg"
   xmlns:sodipodi="http://sodipodi.sourceforge.net/DTD/sodipodi-0.dtd"
   xmlns:inkscape="http://www.inkscape.org/namespaces/inkscape"
   id="svg3375"
   version="1.1"
   inkscape:version="0.91 r13725"
   width="740.5"
   height="740.5"
   viewBox="0 0 740.5 740.5"
   sodipodi:docname="mandala.svg">
  <metadata
     id="metadata3381">
    <rdf:RDF>
      <cc:Work
         rdf:about="">
        <dc:format>image/svg+xml</dc:format>
        <dc:type
           rdf:resource="http://purl.org/dc/dcmitype/StillImage" />
        <dc:title></dc:title>
      </cc:Work>
    </rdf:RDF>
  </metadata>
  <defs
     id="defs3379" />
  <sodipodi:namedview
     pagecolor="#ffffff"
     bordercolor="#666666"
     borderopacity="1"
     objecttolerance="10"
     gridtolerance="10"
     guidetolerance="10"
     inkscape:pageopacity="0"
     inkscape:pageshadow="2"
     inkscape:window-width="1280"
     inkscape:window-height="658"
     id="namedview3377"
     showgrid="false"
     inkscape:zoom="0.6066838"
     inkscape:cx="602.96737"
     inkscape:cy="330.79339"
     inkscape:window-x="-8"
     inkscape:window-y="-8"
     inkscape:window-maximized="1"
     inkscape:current-layer="svg3375"
     fit-margin-top="0"
     fit-margin-left="0"
     fit-margin-right="0"
     fit-margin-bottom="0"
     showborder="true" />
  <path
     style="fill:#000000"
     d="M 361.10714,731.25 C 349.32059,718.47338 338.88672,705.24057 328.97639,690.5 l -8.40397,-12.5 -13.28621,-2.74658 c -15.08598,-3.11865 -35.44197,-9.06713 -49.05014,-14.33357 -22.10058,-8.55304 -50.75237,-24.23559 -70.64193,-38.66583 l -8.40586,-6.09861 -12.59414,1.71214 c -11.43877,1.55508 -34.70894,3.50882 -42.84414,3.59716 l -3.25,0.0353 0,-10.89405 c 0,-12.07329 1.33043,-27.27106 3.49167,-39.88598 l 1.41857,-8.28003 -6.17082,-8.40113 C 93.455274,518.93552 74.81078,476.79581 65.79915,433.25475 L 63.16128,420.50951 50.58064,412.0956 C 35.70895,402.14944 20.27475,389.87341 8.5000004,378.62558 L 0,370.50594 7.5000004,363.45668 C 18.93349,352.71033 38.11611,337.46664 51.43244,328.54526 62.51505,321.12038 63.45248,320.24468 64.0461,316.76214 71.56709,272.63933 91.39602,225.61581 117.89851,189.05329 L 125.18568,179 123.38885,167 c -0.98826,-6.6 -2.05765,-17.85 -2.37643,-25 -0.31877,-7.15 -0.7902,-14.98061 -1.04762,-17.40136 l -0.46803,-4.40136 17.25161,0.64967 c 9.48839,0.35733 22.86351,1.50696 29.72248,2.55473 l 12.47085,1.90506 10.09565,-7.35733 c 36.19497,-26.377526 83.57983,-46.372182 127.75969,-53.909862 3.25894,-0.556019 4.30809,-1.455043 7.403,-6.343689 9.95447,-15.723812 26.00806,-36.285843 39.18991,-50.1958594 L 370.49735,0 l 7.55722,7.9999996 c 11.07255,11.7212944 23.38201,27.2157034 33.53135,42.2072474 8.30054,12.260687 9.20915,13.25286 12.67772,13.843688 44.17381,7.524454 91.46713,27.494057 127.77213,53.951775 l 10.14236,7.39137 7.91094,-1.36419 C 582.09177,121.96011 598.67244,120.5 610.17368,120.5 l 10.32632,0 0,10.39405 c 0,11.65366 -1.35866,26.93687 -3.51143,39.49918 l -1.43832,8.39323 6.34868,8.64967 c 12.5619,17.11477 24.00229,36.77191 32.62901,56.06387 9.11271,20.37882 18.67054,51.61632 22.41622,73.26214 0.60053,3.47039 1.55853,4.37195 12.35343,11.62574 6.43633,4.32498 15.22827,10.57861 19.53765,13.89696 9.79001,7.53859 31.66476,27.00269 31.66476,28.17522 0,2.83732 -33.65406,30.71945 -51.11026,42.34446 l -11.54802,7.69045 -2.63937,12.75251 c -8.99325,43.4523 -27.66436,85.69722 -53.30298,120.60237 l -6.03203,8.21218 1.8425,12.46899 c 1.96797,13.31816 3.8536,44.94209 2.75857,46.26407 -1.27716,1.54186 -50.24653,-2.57716 -56.6216,-4.76268 -0.63425,-0.21744 -5.80925,2.93317 -11.5,7.00135 -35.84061,25.62159 -76.48904,43.51246 -118.64416,52.21966 L 420.4053,678 l -8.36646,12.5 c -4.60155,6.875 -11.79687,16.775 -15.98961,22 -8.96971,11.17807 -24.31926,28 -25.54923,28 -0.47281,0 -4.69959,-4.1625 -9.39286,-9.25 z m 17.59842,-2 c 23.01349,-25.48011 38.34721,-47.90927 53.66857,-78.50289 10.23511,-20.43743 20.30177,-46.98041 25.96863,-68.47205 l 0.98218,-3.72493 -8.78114,-5.02507 c -9.51901,-5.44731 -10.04341,-5.64439 -10.04459,-3.77506 -0.002,3.37384 -6.41562,14.12197 -11.96927,20.05884 -7.58148,8.10462 -9.82409,9.52391 -22.52994,14.25858 -16.86202,6.28342 -24.15644,12.16783 -29.60859,23.88521 -1.54762,3.32605 -3.38393,9.08487 -4.08069,12.79737 -0.69675,3.7125 -1.51158,6.75 -1.81072,6.75 -0.29914,0 -1.11397,-3.0375 -1.81072,-6.75 -0.69676,-3.7125 -2.53307,-9.47132 -4.08069,-12.79737 C 359.15644,616.23525 351.86202,610.35084 335,604.06742 c -12.70585,-4.73467 -14.94846,-6.15396 -22.52994,-14.25858 -5.55365,-5.93687 -11.96714,-16.685 -11.96927,-20.05884 -10e-4,-1.868 -0.5043,-1.67637 -10.02545,3.81862 l -8.7824,5.06862 2.00105,7.18138 c 11.92592,42.79999 32.23217,84.42012 57.49353,117.83997 9.02419,11.93867 28.00679,33.84141 29.32957,33.84141 0.40541,0 4.09023,-3.7125 8.18847,-8.25 z m -71.00979,-75.79306 c -11.10809,-22.2261 -18.85619,-41.6392 -24.40081,-61.13704 -1.77048,-6.22595 -3.34568,-11.50444 -3.50044,-11.72999 -0.15475,-0.22556 -6.51618,2.57737 -14.1365,6.22872 -25.33636,12.14016 -47.90331,20.24625 -71.65802,25.73968 -5.5,1.27192 -10.31779,2.56941 -10.70619,2.88332 -0.91923,0.74293 16.8737,13.19386 29.93256,20.94585 28.87416,17.14026 60.50598,29.45091 93.77363,36.49537 6.05,1.28109 11.09438,2.26215 11.20973,2.18014 0.11535,-0.082 -4.61593,-9.80474 -10.51396,-21.60605 z m 150.23346,13.4277 c 22.55336,-6.47624 48.36611,-17.74723 69.8444,-30.49716 13.25863,-7.87058 30.83729,-20.20069 29.93256,-20.99545 -0.3884,-0.3412 -5.20619,-1.63776 -10.70619,-2.88126 -22.25365,-5.03132 -47.30835,-14.00673 -71.36495,-25.56524 -7.35072,-3.53182 -13.72859,-6.19673 -14.17306,-5.92204 -0.44446,0.2747 -1.12519,1.95678 -1.51273,3.73798 -1.2948,5.9511 -8.62815,28.1235 -12.61736,38.14862 -5.67852,14.27042 -12.31483,28.51891 -19.00115,40.79637 -3.20691,5.88855 -5.83075,10.90183 -5.83075,11.14061 0,0.77401 23.0272,-4.40116 35.42923,-7.96243 z M 371.50079,634.75 c 0.002,-3.43356 5.9871,-14.32274 10.56045,-19.21202 5.87971,-6.28588 10.62279,-9.05177 23.87897,-13.92483 7.83333,-2.87958 11.83698,-4.99901 15.33091,-8.1158 9.53318,-8.50414 13.58118,-14.07582 16.74832,-23.05245 l 1.32293,-3.74959 -8.67118,-5.74286 c -4.76916,-3.15858 -10.31095,-7.02752 -12.31509,-8.59766 -2.00415,-1.57013 -4.02915,-2.85376 -4.5,-2.85249 -0.47086,10e-4 -2.18127,2.7202 -3.80091,6.04209 C 403.03641,569.9399 389.42167,589.30808 375.99365,604 l -5.48385,6 -4.52509,-5 c -14.6015,-16.13391 -26.04981,-32.12329 -33.63866,-46.9817 -2.39033,-4.68009 -4.73129,-8.51129 -5.20215,-8.51378 -0.47085,-0.002 -2.49585,1.28014 -4.5,2.85027 -2.00414,1.57014 -7.54593,5.43908 -12.31509,8.59766 l -8.67118,5.74286 1.32293,3.74959 c 3.16714,8.97663 7.21514,14.54831 16.74832,23.05245 3.49393,3.11679 7.49758,5.23622 15.33091,8.1158 13.25618,4.87306 17.99926,7.63895 23.87897,13.92483 4.57335,4.88928 10.5589,15.77846 10.56045,19.21202 4.3e-4,0.9625 0.45079,1.75 1.00079,1.75 0.55,0 1.00036,-0.7875 1.00079,-1.75 z M 163.5,616.01233 c 41.35769,-5.95143 83.17859,-20.19253 119.30816,-40.62752 10.46986,-5.92178 35.68827,-22.32803 40.34862,-26.24946 l 3.11087,-2.61763 -3.99936,-9.75886 c -2.19966,-5.36737 -4.15658,-9.93056 -4.34873,-10.14042 -0.19214,-0.20986 -3.7541,2.79809 -7.91546,6.68434 -9.69513,9.05418 -18.62214,15.4027 -27.74892,19.73388 -15.15448,7.19166 -29.13669,7.19904 -44.75518,0.0236 -12.74312,-5.85442 -16.26557,-6.85859 -23.96061,-6.83066 -7.9263,0.0288 -15.53518,2.56895 -23.63341,7.88987 -3.24829,2.13428 -6.48106,4.24741 -7.18394,4.69585 -0.70287,0.44843 0.75737,-2.21945 3.24499,-5.92864 7.86459,-11.72656 10.57621,-21.87633 8.55379,-32.01743 -0.64377,-3.2281 -3.431,-10.70544 -6.19384,-16.61632 l -5.02335,-10.74705 0.34818,-13.33162 0.34819,-13.33162 4.22,-8.42133 c 4.69762,-9.37444 10.06109,-16.84699 19.89987,-27.72509 3.63327,-4.01707 6.44264,-7.44668 6.24304,-7.62136 -0.39951,-0.34963 -17.85508,-7.48234 -19.20433,-7.84729 -1.08654,-0.29389 -12.45035,15.42897 -21.03088,29.09812 -9.17521,14.61649 -25.47486,47.82467 -31.49883,64.17429 -11.93966,32.4054 -20.1248,74.25209 -20.12803,102.905 l -8.4e-4,7.40499 15.25,-0.64335 c 8.3875,-0.35384 19.975,-1.32328 25.75,-2.15431 z M 618.16046,603.75 c -2.7457,-62.13372 -26.81075,-127.80359 -66.85485,-182.43675 l -4.90114,-6.68674 -6.20224,2.7796 c -3.41122,1.52878 -7.88973,3.33521 -9.95223,4.0143 -2.0625,0.67908 -3.75,1.47995 -3.75,1.77971 0,0.29976 2.5875,3.31168 5.75,6.69317 8.80445,9.41411 15.88225,19.24876 20.53103,28.52804 l 4.21897,8.42133 0.34819,13.33162 0.34818,13.33162 -5.02335,10.74705 c -2.76284,5.91088 -5.55007,13.38822 -6.19384,16.61632 -2.02242,10.1411 0.6892,20.29087 8.55379,32.01743 2.48762,3.70919 3.94786,6.37707 3.24499,5.92864 -0.70288,-0.44844 -3.93565,-2.56157 -7.18394,-4.69585 -8.09823,-5.32092 -15.70711,-7.8611 -23.63341,-7.88987 -7.69504,-0.0279 -11.21749,0.97624 -23.96061,6.83066 -15.45422,7.09995 -29.21939,7.16169 -44.41126,0.19921 -7.83971,-3.59296 -23.63309,-15.05599 -30.54695,-22.17135 -2.45201,-2.52348 -4.77961,-4.58814 -5.17245,-4.58814 -0.39283,0 -1.26985,1.6875 -1.94893,3.75 -0.67909,2.0625 -2.49122,6.55371 -4.02697,9.98048 l -2.79227,6.23047 5.69941,4.38179 c 7.84582,6.03196 23.55509,16.19114 36.65913,23.70743 46.43863,26.63655 103.00229,43.04273 150.94642,43.78173 l 10.90613,0.1681 -0.6518,-14.75 z m -241.0847,-4.5 c 26.89724,-29.02819 47.30886,-72.54716 54.87662,-117.00073 0.58214,-3.41952 0.39167,-3.85792 -2.15693,-4.96458 -1.5375,-0.66762 -4.41743,-2.20657 -6.39984,-3.41989 l -3.60439,-2.20605 -0.63522,9.17062 c -1.57107,22.68158 -8.82059,34.07013 -25.75724,40.46303 -4.61932,1.74361 -10.04566,4.52791 -12.05853,6.18733 -4.43511,3.65632 -8.58926,11.64768 -9.45762,18.19365 -0.35215,2.65464 -0.97432,4.82662 -1.38261,4.82662 -0.40829,0 -1.03046,-2.17198 -1.38261,-4.82662 -0.86836,-6.54597 -5.02251,-14.53733 -9.45762,-18.19365 -2.01287,-1.65942 -7.43921,-4.44372 -12.05853,-6.18733 -16.93665,-6.3929 -24.18617,-17.78145 -25.75724,-40.46303 l -0.63522,-9.17062 -3.83452,2.42062 c -2.10898,1.33135 -4.20745,2.42063 -4.66326,2.42063 -0.45581,0 -1.62052,0.57897 -2.58826,1.28659 -1.66928,1.22061 -1.62701,1.94102 0.82411,14.04669 7.07561,34.94522 24.10519,72.0882 45.00818,98.16672 5.54851,6.92231 13.65563,15.5 14.64966,15.5 0.37394,0 3.28592,-2.8125 6.47107,-6.25 z M 137.28831,516.5 c 4.55435,-13.18428 11.60787,-29.87648 18.16525,-42.98821 l 5.97795,-11.95314 -4.21575,-1.11331 c -25.06349,-6.61881 -57.01819,-19.52119 -81.58811,-32.94292 l -9.37234,-5.1198 0.68441,4.80869 c 1.31454,9.23611 6.71467,29.58624 11.61704,43.77827 10.32258,29.88318 24.35203,56.96323 41.58,80.2589 l 5.62883,7.61132 4.29325,-16.9199 c 2.36128,-9.30595 5.61454,-20.7449 7.22947,-25.4199 z M 627.963,541 c 14.76726,-22.26864 25.52576,-44.1078 34.43694,-69.90508 4.92735,-14.26435 10.34237,-34.64025 11.65088,-43.84047 l 0.67493,-4.74556 -17.36287,8.92462 c -24.33737,12.50955 -44.1319,20.37525 -70.51507,28.02041 l -7.1522,2.07251 6.31995,12.73679 c 11.59942,23.37665 20.40369,47.67375 26.10526,72.04254 L 615,558.61152 l 2.83422,-3.30576 C 619.39304,553.48759 623.95099,547.05 627.963,541 Z m -348.18028,10.78723 c 9.19258,-4.35425 19.93264,-11.92344 29.31461,-20.65982 l 7.79846,-7.26185 -1.74665,-6.45265 c -0.96065,-3.54895 -2.09349,-7.01386 -2.51742,-7.69978 -0.57142,-0.92459 -3.33911,0.0172 -10.70125,3.64141 -27.60286,13.58825 -55.72016,21.0883 -85.33307,22.76186 l -12.0974,0.68368 0.003,-3.90004 c 0.002,-2.14502 0.47593,-9.07504 1.05345,-15.40004 2.33104,-25.52943 9.72412,-52.20797 21.03573,-75.90917 3.25732,-6.82504 5.76879,-12.56277 5.58105,-12.75051 -0.18773,-0.18774 -3.64363,-1.33412 -7.67976,-2.54752 l -7.33843,-2.20618 -5.89786,6.45669 c -9.3734,10.26155 -17.41035,21.39734 -21.4633,29.73896 -3.55849,7.32397 -3.76888,8.31075 -4.12364,19.34085 l -0.37382,11.62313 5.04454,11.39543 c 5.52165,12.47321 7.09699,17.97744 7.13417,24.92682 0.0275,5.13099 -2.21139,13.49814 -5.16157,19.29007 -1.08097,2.12221 -1.59383,3.67769 -1.13969,3.45662 18.03092,-8.77731 27.32576,-8.72261 46.32571,0.27259 l 10.5,4.97105 12.5,-0.27942 c 11.70669,-0.26168 12.93046,-0.48331 19.28272,-3.49218 z m 223.6767,-1.22399 c 19.29613,-8.96691 28.35588,-9.01537 46.36629,-0.24805 0.45414,0.22107 -0.0587,-1.33441 -1.13969,-3.45662 -2.95018,-5.79193 -5.18903,-14.15908 -5.16157,-19.29007 0.0372,-6.94938 1.61252,-12.45361 7.13417,-24.92682 l 5.04454,-11.39543 -0.37382,-11.62313 c -0.35476,-11.0301 -0.56515,-12.01688 -4.12364,-19.34085 -4.04795,-8.33135 -12.0892,-19.47684 -21.42766,-29.6996 l -5.8622,-6.41733 -6.58539,1.78258 c -3.62196,0.98042 -7.09841,2.09965 -7.72544,2.48718 -0.77716,0.48031 0.78174,4.72215 4.89727,13.32567 11.20871,23.43184 18.60851,50.19558 20.94085,75.73923 0.57752,6.325 1.05157,13.1875 1.05345,15.25 l 0.003,3.75 -5.39405,0 c -9.12414,0 -25.50377,-1.96388 -38.44861,-4.60989 -16.79031,-3.43206 -34.02136,-9.27494 -50.08663,-16.98388 -9.14998,-4.39063 -13.65409,-6.08034 -14.13475,-5.30261 -0.388,0.6278 -1.49127,4.04447 -2.4517,7.5926 l -1.74625,6.45116 3.881,4.01972 c 5.32214,5.5124 18.05201,15.6339 24.7432,19.6733 11.16323,6.73912 15.97379,8.10971 28.55573,8.13586 l 11.41794,0.0237 10.62354,-4.93676 z M 372.85049,534.99278 c 2.66583,-6.48232 9.29929,-11.86612 19.30187,-15.66564 14.62424,-5.55507 21.7854,-15.36032 24.27124,-33.23281 1.81121,-13.02217 1.50147,-16.00631 -2.1736,-20.94063 -1.7875,-2.39998 -3.71644,-5.16469 -4.28653,-6.14379 -0.75686,-1.29986 -1.65664,-1.58338 -3.33475,-1.05076 -1.91882,0.60901 -2.17853,1.16782 -1.57323,3.38513 2.94852,10.80088 2.05011,20.36336 -2.76127,29.39043 -3.74688,7.02985 -9.1659,12.10955 -16.67421,15.63012 C 380.78396,508.63241 378.67481,509 370.5,509 c -8.17481,0 -10.28396,-0.36759 -15.12001,-2.63517 -16.95491,-7.94998 -24.69216,-25.81348 -19.45909,-44.92646 0.57856,-2.11312 0.2622,-2.76173 -1.80684,-3.70445 -2.1742,-0.99063 -2.59165,-0.87988 -3.13487,0.83164 -0.34466,1.08595 -2.16848,3.99434 -4.05293,6.4631 -3.87305,5.07397 -4.18506,7.87104 -2.34986,21.06567 1.60207,11.51847 4.40641,18.01193 10.56915,24.47291 4.41876,4.63261 6.73506,6.11345 13.70209,8.7599 10.00258,3.79952 16.63604,9.18332 19.30187,15.66564 1.01777,2.47485 2.07549,4.49972 2.35049,4.49972 0.275,0 1.33272,-2.02487 2.35049,-4.49972 z M 235,531.89622 c 21.63341,-2.93721 41.12427,-8.89795 62.83542,-19.21649 l 13.83543,-6.57548 -0.6499,-3.05213 c -0.35745,-1.67866 -0.88882,-4.4163 -1.18082,-6.08363 l -0.5309,-3.03152 -9.78206,0.3929 c -9.46107,0.38001 -10.04096,0.276 -17.67188,-3.16945 -4.3394,-1.95929 -9.78281,-3.86505 -12.09647,-4.23502 -5.05535,-0.80839 -12.71758,1.43997 -18.6982,5.48668 -6.78422,4.59045 -6.98629,4.56697 -3.55952,-0.41367 8.05562,-11.70845 8.59116,-18.7655 2.48422,-32.7358 -3.4399,-7.86915 -3.59698,-8.71385 -3.29861,-17.73875 L 247,432.04772 l -5.44827,-1.21034 c -2.99654,-0.66569 -5.87121,-0.94895 -6.38815,-0.62946 -0.51694,0.31948 -3.30315,5.5784 -6.19158,11.68648 -13.10636,27.71566 -19.89733,53.36095 -21.16785,79.93781 l -0.61345,12.83222 8.40465,-0.63736 C 220.21791,533.67652 228.95,532.71764 235,531.89622 Z M 533.61543,525.5 c -0.62389,-25.84645 -8.42824,-55.9118 -21.87317,-84.26377 l -5.57856,-11.76377 -3.58185,0.66958 c -9.23526,1.7264 -8.61933,0.87495 -8.26856,11.43032 0.29807,8.96986 0.1379,9.82885 -3.29861,17.69025 -6.10694,13.9703 -5.5714,21.02735 2.48422,32.7358 3.42677,4.98064 3.2247,5.00412 -3.55952,0.41367 -5.98062,-4.04671 -13.64285,-6.29507 -18.6982,-5.48668 -2.31366,0.36997 -7.72558,2.26151 -12.0265,4.20342 -7.44726,3.36254 -8.27935,3.51738 -17.46443,3.25004 l -9.64459,-0.28072 -1.28354,4.95093 c -0.70595,2.72301 -1.29222,5.4386 -1.30283,6.03464 -0.0318,1.7886 24.52565,13.02379 38.98071,17.83389 19.99848,6.65473 48.8263,11.83513 62.4103,11.21521 L 533.82061,534 533.61543,525.5 Z M 384.70266,504.26476 c 14.81201,-6.78117 22.70946,-23.45723 18.80892,-39.7165 -0.99204,-4.1353 -1.56954,-5.04603 -2.87642,-4.53617 -7.99698,3.11992 -14.52319,3.98236 -30.13516,3.98236 -15.61197,0 -22.13818,-0.86244 -30.13516,-3.98236 -1.30688,-0.50986 -1.88438,0.40087 -2.87642,4.53617 -3.31977,13.83838 2.07108,28.86997 13.09314,36.50826 10.0788,6.98461 23.18142,8.21659 34.1211,3.20824 z M 307.37479,491 c 0.63236,-0.64933 0.56207,-2.92869 -0.20046,-6.5 L 306,479 l -9,-0.0852 c -10.7044,-0.10129 -16.00525,-2.07764 -23.11019,-8.6163 -8.79592,-8.09488 -12.92828,-18.00114 -12.21062,-29.27179 l 0.39583,-6.21627 -5.84504,-0.96667 c -3.79163,-0.62707 -6.05695,-0.62378 -6.44825,0.009 -0.33178,0.53682 -0.80975,4.19407 -1.06217,8.12721 -0.42615,6.64043 -0.18586,7.75356 3.36438,15.5854 3.39168,7.48202 3.82697,9.33738 3.85572,16.43421 0.0228,5.63009 -0.46229,8.91019 -1.6375,11.07247 l -1.66991,3.07247 5.68387,-1.92815 c 7.53574,-2.55635 13.80808,-1.8563 23.82457,2.65905 7.16915,3.2318 8.57943,3.52453 16.05977,3.33354 4.51025,-0.11516 8.6387,-0.65938 9.17433,-1.20938 z m 151.03731,-2.08135 c 10.53269,-4.5644 16.74332,-5.25574 24.27178,-2.70186 l 5.68387,1.92815 -1.66991,-3.07247 c -1.17521,-2.16228 -1.66031,-5.44238 -1.6375,-11.07247 0.0288,-7.09683 0.46404,-8.95219 3.85572,-16.43421 3.55024,-7.83184 3.79053,-8.94497 3.36438,-15.5854 -0.25242,-3.93314 -0.73701,-7.6011 -1.07687,-8.15101 -0.40561,-0.65629 -2.62233,-0.67703 -6.45151,-0.0604 l -5.83357,0.93947 0.39907,6.26726 c 0.72115,11.32547 -3.39505,21.21281 -12.20737,29.32278 -7.19286,6.61958 -12.40987,8.55648 -23.25866,8.63514 l -9.14847,0.0663 -0.94441,5.84035 c -0.8804,5.44451 -0.80256,5.8977 1.14847,6.68661 1.15108,0.46545 5.05115,0.87479 8.6668,0.90965 5.42262,0.0523 8.02126,-0.56382 14.83818,-3.51796 z M 311.59412,474.30451 c 2.97323,-1.36666 6.94403,-3.78542 8.82398,-5.37502 3.13651,-2.65207 9.0819,-10.85462 9.0819,-12.52981 0,-0.38982 -2.5875,-2.16585 -5.75,-3.94674 -15.46001,-8.70595 -26.57037,-20.30657 -37.78698,-39.4544 -0.98452,-1.68067 -1.20495,-1.68335 -4.35767,-0.053 -5.25069,2.71524 -12.02961,10.15399 -14.907,16.35798 -3.73164,8.04586 -3.76014,19.28654 -0.0691,27.24213 8.30094,17.89153 27.86561,25.61861 44.96484,17.75888 z m 140.87779,1.61119 c 10.16289,-3.01805 17.2001,-9.24265 21.89881,-19.37007 3.69107,-7.95559 3.66257,-19.19627 -0.0691,-27.24213 -2.87739,-6.20399 -9.65631,-13.64274 -14.907,-16.35798 -3.15272,-1.63033 -3.37315,-1.62765 -4.35767,0.053 -11.21661,19.14783 -22.32697,30.74845 -37.78698,39.4544 -3.1625,1.78089 -5.75,3.55692 -5.75,3.94674 0,1.65011 5.92104,9.85609 8.95178,12.40629 9.35805,7.87428 20.85185,10.42636 32.02013,7.10973 z m -58.03918,-16.39183 c 32.86854,-9.4287 57.55817,-34.84269 65.76548,-67.69496 2.64171,-10.57422 2.41854,-33.39166 -0.42931,-43.89441 -4.50714,-16.62211 -12.43785,-30.39655 -24.37235,-42.33105 -11.78604,-11.78605 -23.1895,-18.44922 -40.75798,-23.81537 -7.74747,-2.36641 -10.23744,-2.63859 -24.13857,-2.63859 -13.90113,0 -16.3911,0.27218 -24.13857,2.63859 -17.56848,5.36615 -28.97194,12.02932 -40.75798,23.81537 -11.9345,11.9345 -19.86521,25.70894 -24.37235,42.33105 -2.84785,10.50275 -3.07102,33.32019 -0.42931,43.89441 8.97883,35.94051 37.92923,63.02049 74.52907,69.71392 8.3216,1.52186 30.80549,0.36095 39.10187,-2.01896 z m -28.34344,-12.18165 c -5.77316,-1.29577 -10.2989,-4.48557 -13.02365,-9.17925 -4.58673,-7.90116 -4.27087,-15.39749 0.97447,-23.12693 1.98618,-2.92681 2.28487,-4.042 1.37595,-5.13718 -2.10876,-2.5409 -3.72232,-1.50661 -4.448,2.85114 -2.98911,17.94986 -22.87914,24.93854 -35.04139,12.31236 -7.22087,-7.49631 -8.12028,-16.92342 -2.46536,-25.8403 3.13646,-4.94568 9.58154,-8.72206 14.8858,-8.72206 3.79551,0 5.19886,-2.3826 2.81024,-4.77122 -1.48818,-1.48818 -1.80067,-1.44276 -3.94697,0.57358 -3.53344,3.3195 -11.01225,5.52942 -16.12033,4.76341 C 300.77497,389.51893 293.5,381.11638 293.5,370.74938 c 0,-6.52675 1.042,-9.18323 5.56657,-14.19138 7.31756,-8.09967 20.23796,-8.68536 28.66467,-1.2994 1.4062,1.23253 2.01639,1.28077 3.25,0.25697 2.65191,-2.20089 1.6895,-3.76263 -2.73124,-4.43206 -22.97175,-3.47863 -24.84091,-34.63505 -2.43973,-40.66706 11.23572,-3.02546 23.1869,5.43833 25.1816,17.83355 0.70681,4.39221 2.31227,5.39585 4.47084,2.79493 0.97135,-1.17041 0.71989,-2.09969 -1.28537,-4.75 C 343.9037,312.71645 353.4681,293.5 370.5,293.5 c 5.57231,0 9.95175,1.791 14.33928,5.86416 7.51775,6.9791 8.36588,18.49514 1.98338,26.93077 -2.00526,2.65031 -2.25672,3.57959 -1.28537,4.75 2.15857,2.60092 3.76403,1.59728 4.47084,-2.79493 1.9947,-12.39522 13.94588,-20.85901 25.1816,-17.83355 14.56898,3.92302 20.45777,19.6655 12.03283,32.16728 -2.77798,4.12224 -8.75822,7.63445 -14.47256,8.49978 -4.42074,0.66943 -5.38315,2.23117 -2.73124,4.43206 1.23361,1.0238 1.8438,0.97556 3.25,-0.25697 8.42671,-7.38596 21.34711,-6.80027 28.66467,1.2994 4.52457,5.00815 5.56657,7.66463 5.56657,14.19138 0,10.367 -7.27497,18.76955 -17.59005,20.31639 -5.10808,0.76601 -12.58689,-1.44391 -16.12033,-4.76341 -2.1463,-2.01634 -2.45879,-2.06176 -3.94697,-0.57358 -2.52384,2.52383 -0.99638,4.43743 3.9907,4.99955 9.84135,1.10926 17.0767,9.4413 17.13518,19.73241 0.0987,17.37525 -19.26621,26.92365 -33.22776,16.38384 -3.83778,-2.8972 -6.72249,-8.17152 -7.70883,-14.09458 -0.72568,-4.35775 -2.33924,-5.39204 -4.448,-2.85114 -0.90892,1.09518 -0.61023,2.21037 1.37595,5.13718 5.38731,7.93864 5.58031,15.85534 0.5788,23.7419 -4.30295,6.78505 -13.32566,10.38762 -21.4494,8.56428 z m 11.09561,-2.90584 c 3.44863,-1.30298 8.01022,-5.51102 9.90438,-9.13672 2.31725,-4.43558 1.797,-12.46481 -1.13143,-17.4618 -1.39819,-2.38582 -2.8776,-4.33786 -3.2876,-4.33786 -0.40999,0 -2.9616,2.25 -5.67025,5 -2.70865,2.75 -5.63365,5 -6.5,5 -0.86635,0 -3.79135,-2.25 -6.5,-5 -2.70865,-2.75 -5.26026,-5 -5.67025,-5 -0.41,0 -1.88941,1.95204 -3.2876,4.33786 -2.92843,4.99699 -3.44868,13.02622 -1.13143,17.4618 1.81392,3.47212 6.39483,7.80956 9.58928,9.07961 3.35963,1.33573 10.22493,1.36438 13.6849,0.0571 z m -37.33684,-18.26094 c 4.67121,-2.6147 8.65194,-9.04283 8.65194,-13.97123 l 0,-3.62008 -7.75,-0.29207 L 333,408 l -0.29206,-7.75 -0.29207,-7.75 -2.89283,0 c -9.23531,0 -17.10057,8.2244 -17.17598,17.96025 -0.1141,14.72956 14.42206,23.03612 27.501,15.71519 z M 415,428.39622 c 8.621,-2.35488 13.72173,-9.05574 13.65294,-17.93597 C 428.57754,400.7244 420.71227,392.5 411.47696,392.5 l -2.89283,0 -0.29207,7.75 L 408,408 l -7.75,0.29206 -7.75,0.29207 0,3.57178 c 0,6.94721 5.92875,13.98914 13.76404,16.34838 3.77331,1.13616 4.2003,1.13087 8.73596,-0.10807 z M 377,414.5 l 5.93739,-6 -12.43739,0 -12.43739,0 5.93739,6 c 3.26557,3.3 6.19057,6 6.5,6 0.30943,0 3.23443,-2.7 6.5,-6 z m -25.5,-8.27208 c 0,-0.14964 -3.825,-4.07721 -8.5,-8.72792 l -8.5,-8.45584 0,8.72792 0,8.72792 8.5,0 c 4.675,0 8.5,-0.12243 8.5,-0.27208 z m 44.23367,-10.46087 10.76633,-10.73294 0,-14.50073 0,-14.50072 -10.73295,-10.76633 -10.73294,-10.76633 -14.50073,0 -14.50072,0 -10.76633,10.73295 -10.76633,10.73294 0,14.50073 0,14.50072 10.73295,10.76633 10.73294,10.76633 14.50073,0 14.50072,0 10.76633,-10.73295 z M 406.5,398 c 0,-4.675 -0.12243,-8.5 -0.27208,-8.5 -0.14964,0 -4.07721,3.825 -8.72792,8.5 l -8.45584,8.5 8.72792,0 8.72792,0 0,-8.5 z m -81.84995,-12.60685 c 1.56747,-1.11613 2.84995,-2.29272 2.84995,-2.61462 0,-0.32191 -2.25,-2.96433 -5,-5.87205 -2.75,-2.90772 -5,-5.79063 -5,-6.40648 0,-0.61585 2.25,-3.49876 5,-6.40648 2.75,-2.90772 5,-5.56182 5,-5.89799 0,-0.33617 -2.0422,-1.80803 -4.53823,-3.2708 -9.03057,-5.29227 -20.66701,-1.82324 -25.471,7.59336 -7.00123,13.72355 5.13376,29.03019 20.40928,25.74353 2.14503,-0.46152 5.18253,-1.75233 6.75,-2.86847 z M 436,386.76114 c 3.04372,-1.65735 7.24718,-6.42874 8.43638,-9.57624 5.97046,-15.80212 -11.81976,-30.80368 -26.39815,-22.26017 -2.49603,1.46277 -4.53823,2.93463 -4.53823,3.2708 0,0.33617 2.25,2.99027 5,5.89799 2.75,2.90772 5,5.79063 5,6.40648 0,0.61585 -2.35858,3.61357 -5.24128,6.6616 l -5.24128,5.54189 2.99128,2.38741 c 5.03665,4.01988 14.26084,4.79055 19.99128,1.67024 z M 332.5,370.26 l 0,-12.24 -6.22929,6.22929 -6.22929,6.22929 5.94798,6.01071 c 3.2714,3.30589 6.07458,6.01071 6.2293,6.01071 0.15471,0 0.2813,-5.508 0.2813,-12.24 z m 82.24,-6 -6.24,-6.24 0,12.48 0,12.48 6.24,-6.24 6.24,-6.24 -6.24,-6.24 z M 343.5,343 l 8.45584,-8.5 -8.72792,0 -8.72792,0 0,8.5 c 0,4.675 0.12243,8.5 0.27208,8.5 0.14964,0 4.07721,-3.825 8.72792,-8.5 z m 63,0 0,-8.5 -8.72792,0 -8.72792,0 8.45584,8.5 c 4.65071,4.675 8.57828,8.5 8.72792,8.5 0.14965,0 0.27208,-3.825 0.27208,-8.5 z M 332.70794,340.75 333,333 l 7.75,-0.29206 7.75,-0.29207 0,-2.89283 c 0,-5.99461 -4.25416,-12.50589 -10.20034,-15.61232 -4.18605,-2.18689 -12.35417,-1.78907 -17.01156,0.82853 -8.46676,4.75858 -11.52865,16.11229 -6.67443,24.74921 2.84249,5.05752 8.99799,8.98908 14.09427,9.00208 l 3.70793,0.009 0.29207,-7.75 z m 87.21495,5.34806 c 11.57871,-6.78558 11.4575,-24.80075 -0.21099,-31.35881 -4.65739,-2.6176 -12.82551,-3.01542 -17.01156,-0.82853 -5.94618,3.10643 -10.20034,9.61771 -10.20034,15.61232 l 0,2.89283 7.75,0.29207 L 408,333 l 0.29206,7.75 0.29207,7.75 3.62008,0 c 2.01776,0 5.4342,-1.06315 7.71868,-2.40194 z M 376.74,326.26 l -6.24,-6.24 -6.24,6.24 -6.24,6.24 12.48,0 12.48,0 -6.24,-6.24 z m -12.64648,-3.76 c 2.90772,-2.75 5.79063,-5 6.40648,-5 0.61585,0 3.61357,2.35858 6.6616,5.24128 l 5.54189,5.24128 2.39415,-2.99128 c 4.20521,-5.25403 4.54636,-16.12157 0.67037,-21.35552 -7.86521,-10.6208 -22.73496,-10.52988 -30.67606,0.18757 -3.12987,4.22413 -3.00057,15.90277 0.22614,20.42667 1.27496,1.7875 2.58148,3.25 2.90338,3.25 0.32191,0 2.96433,-2.25 5.87205,-5 z M 167.44186,450.906 c 5.33557,-9.06537 5.82597,-10.40552 3.80814,-10.40679 -3.19716,-0.002 -13.91828,-6.26055 -19.36853,-11.30652 C 143.81447,421.72407 141.18987,417.68651 137.45524,407 130.23446,386.33803 121.66242,377.88118 103.0399,373.04713 99.761854,372.19621 96.022794,371.5 94.730884,371.5 c -1.3113,0 -2.0759,-0.44174 -1.73088,-1 0.33992,-0.55 1.62193,-1 2.84892,-1 8.024356,0 21.981736,-6.03556 28.480896,-12.31594 5.7327,-5.53973 8.46881,-10.35781 13.05192,-22.98345 3.0908,-8.51459 4.84069,-11.69014 9.2167,-16.72576 6.43309,-7.40275 14.14637,-13.14283 20.94684,-15.58825 2.7251,-0.97993 4.95472,-2.10848 4.95472,-2.50789 0,-0.39941 -2.27638,-4.53509 -5.05863,-9.1904 l -5.05863,-8.46419 -11.19137,3.32904 C 95.874724,301.50795 48.25601,328.10918 11.70487,362.97448 l -8.4322796,8.04336 11.2305696,9.99108 c 37.30445,33.18726 80.907654,57.88136 127.99684,72.48935 7.425,2.30337 14.625,4.56053 16,5.0159 1.375,0.45536 2.81134,0.86346 3.19186,0.90688 0.38052,0.0434 2.96802,-3.78835 5.75,-8.51505 z M 601,452.84111 c 47.79238,-15.43607 91.64712,-40.94112 129.0045,-75.02648 l 7.60231,-6.93645 -8.36894,-8.03452 c -36.78373,-35.31385 -87.8199,-63.29234 -145.40856,-79.71428 l -5.17068,-1.47447 -5.07932,8.4988 c -2.79362,4.67434 -5.07931,8.82559 -5.07931,9.225 0,0.39941 2.22962,1.52796 4.95472,2.50789 6.80047,2.44542 14.51375,8.1855 20.94684,15.58825 4.37601,5.03562 6.1259,8.21117 9.2167,16.72576 4.58311,12.62564 7.31922,17.44372 13.05192,22.98345 6.49916,6.28038 20.45654,12.31594 28.4809,12.31594 5.13761,0 2.71053,1.71727 -4.02718,2.8494 -13.82083,2.32231 -25.52409,9.942 -31.52779,20.52694 -1.59836,2.81801 -4.32146,9.17366 -6.05135,14.12366 -3.73463,10.68651 -6.35923,14.72407 -14.42623,22.19269 -5.45025,5.04597 -16.17137,11.3045 -19.36853,11.30652 -2.01595,10e-4 -1.52768,1.341 3.76775,10.33816 l 5.01775,8.52537 7.23225,-1.96889 C 589.74549,456.31096 596.6,454.26223 601,452.84111 Z m -416.66867,-27.88173 7.74919,-11.04061 -12.27978,-6.93095 c -15.08972,-8.51694 -26.19245,-16.38984 -38.70897,-27.44835 l -9.576,-8.46053 3.24212,-3.41657 c 10.21574,-10.76547 33.76458,-27.87171 49.46054,-35.92892 4.00014,-2.0534 7.27492,-4.03038 7.27728,-4.3933 0.002,-0.36292 -3.42049,-5.53792 -7.60633,-11.5 -4.18584,-5.96208 -7.83399,-11.40265 -8.10699,-12.09015 -0.79099,-1.99195 -4.03302,-1.47118 -10.72557,1.72288 -4.53947,2.16649 -8.40621,5.24059 -14.25527,11.33311 -7.37405,7.68098 -8.25167,9.04407 -10.80198,16.77712 -3.33618,10.11598 -5.63112,14.87957 -10.17306,21.11615 -4.05075,5.56211 -13.18304,11.94068 -19.71337,13.76906 -4.87395,1.36462 -7.02937,3.03111 -3.92216,3.03247 3.5173,0.002 14.36491,5.97134 19.38804,10.6699 6.43027,6.01476 9.02566,10.46876 13.85898,23.78366 3.37823,9.30643 4.616,11.45175 9.7167,16.84118 9.18337,9.70322 12.37539,11.99054 21.25133,15.22815 4.18491,1.52649 2.71908,2.9017 13.9253,-13.0643 z m 393.30498,9.9844 c 4.27652,-2.19334 6.95369,-4.48223 14.20899,-12.14825 5.1007,-5.38943 6.33847,-7.53475 9.7167,-16.84118 4.64479,-12.79554 7.32359,-17.55631 13.08732,-23.25879 4.46075,-4.41334 16.60334,-11.19556 20.04405,-11.19556 3.20976,0 1.1433,-1.64582 -3.80651,-3.03168 -6.53033,-1.82838 -15.66262,-8.20695 -19.71337,-13.76906 -4.5637,-6.26645 -6.84915,-11.02549 -10.1806,-21.19926 -2.66201,-8.12939 -3.18035,-8.89589 -11.88813,-17.5797 -7.44038,-7.4199 -10.29298,-9.55681 -15.60476,-11.68968 l -6.5,-2.60998 -1.5,2.1539 c -0.825,1.18465 -4.7625,6.82308 -8.75,12.52983 -3.9875,5.70676 -7.24807,10.67286 -7.24571,11.03578 0.002,0.36292 3.48717,2.44802 7.74402,4.63356 15.52698,7.97183 36.94591,23.40255 47.46224,34.19297 l 4.71056,4.83332 -8.71056,7.75454 c -14.76904,13.1481 -29.87111,23.56976 -45.93125,31.69632 l -6.2207,3.14772 5.30929,7.20071 c 2.92011,3.96039 6.99781,9.75382 9.06155,12.8743 l 3.75225,5.67359 3.79547,-1.33912 c 2.08751,-0.73652 5.30912,-2.11544 7.15915,-3.06428 z m -311.46414,-9.01259 3.17216,-6.43119 -5.96432,0 c -7.55521,0 -19.86581,-2.51971 -25.803,-5.28132 -7.36366,-3.42511 -14.48458,-11.42842 -17.06343,-19.17787 -4.56324,-13.71256 -11.81323,-20.47731 -24.57716,-22.93226 -6.20151,-1.19276 -6.61857,-1.41225 -3.93642,-2.07161 9.4056,-2.31221 11.30521,-2.90849 14.49438,-4.54971 6.46368,-3.32634 10.76187,-9.46274 14.38004,-20.52992 2.05075,-6.27279 10.92765,-15.40002 18.01165,-18.5196 5.68366,-2.50291 17.83566,-4.85277 25.35439,-4.90282 l 5.24045,-0.0349 -3.4794,-6.25 c -4.0655,-7.30281 -3.01115,-7.15008 -21.50151,-3.11458 -38.4256,8.38636 -76.99874,28.04263 -103.5,52.74201 l -6,5.59205 6.38646,6.11851 c 21.00756,20.12617 55.62659,39.40712 86.92068,48.41018 10.37828,2.98575 29.67033,7.32128 32.69286,7.34711 1.47066,0.0126 2.83958,-1.68504 5.17217,-6.41409 z m 226.13345,4.06948 C 522.41476,423.6435 549.7675,412.45534 573.5,396.78952 583.68789,390.0645 599.93494,377.14358 604,372.53355 l 2,-2.26813 -6,-5.52255 c -23.27836,-21.42599 -55.60126,-39.32017 -88,-48.71739 -8.80038,-2.55254 -33.60539,-7.91707 -33.86766,-7.32448 -0.0728,0.16445 -1.58284,3.1115 -3.35568,6.549 l -3.22334,6.25 5.22334,0.0349 c 7.50362,0.0501 19.65872,2.40216 25.33727,4.90282 7.0827,3.119 15.96054,12.2466 18.01284,18.5196 4.9663,15.17984 12.12826,22.04072 25.18787,24.12904 6.18993,0.98981 5.88247,1.931 -1.05209,3.22061 -11.89494,2.2121 -19.30462,9.29696 -23.77613,22.73385 -2.57885,7.74945 -9.69977,15.75276 -17.06343,19.17787 -5.93719,2.7616 -18.24779,5.28131 -25.803,5.28131 l -5.96432,0 3.17216,6.43119 c 1.74469,3.53716 3.72751,6.46216 4.40625,6.5 0.67875,0.0378 6.56094,-1.05589 13.07154,-2.43052 z m -218.7272,-14.09516 c 0.72782,-0.87697 3.42087,-2.79245 5.98454,-4.25663 4.15147,-2.371 4.56625,-2.91892 3.7927,-5.01003 -0.63002,-1.7031 -1.34736,-2.15988 -2.6121,-1.6633 -0.95896,0.37652 -4.26105,1.1343 -7.33797,1.68396 -15.17389,2.71064 -31.86938,-6.31196 -38.71742,-20.92372 C 232.36176,380.7719 232,378.72152 232,370.5 c 0,-8.47267 0.31568,-10.14295 2.91921,-15.44553 3.71783,-7.57205 10.12939,-13.98362 17.38429,-17.38429 C 257.224,335.36374 259.29412,335 267.5,335 c 5.225,0 10.73426,0.38547 12.24279,0.8566 2.35951,0.73689 2.86448,0.52764 3.61361,-1.49745 0.76826,-2.0768 0.38633,-2.62811 -3.24279,-4.68094 -2.26249,-1.27978 -5.11425,-3.26073 -6.33725,-4.4021 -2.02967,-1.89419 -2.98301,-2.01685 -10.9285,-1.40611 -10.46583,0.80447 -20.05146,2.91848 -25.11918,5.53978 -6.11909,3.16512 -12.93051,10.91046 -15.07411,17.14095 -4.11765,11.96817 -8.55832,17.68125 -17.05065,21.93632 l -4.39609,2.20265 4.39609,1.96173 c 8.17686,3.64888 13.32676,10.34258 17.30143,22.48797 1.96198,5.99521 10.79519,15.16407 17.1784,17.83115 9.59596,4.00944 31.04324,5.88876 33.49467,2.93496 z m 215.10201,0.12226 c 11.40515,-1.9889 15.12117,-3.71999 21.93308,-10.21745 4.30913,-4.11021 6.23139,-6.85209 7.48114,-10.67092 3.97467,-12.14539 9.12457,-18.83909 17.30143,-22.48797 l 4.39609,-1.96173 -4.39609,-2.20265 c -8.49233,-4.25507 -12.933,-9.96815 -17.05065,-21.93632 -2.1436,-6.23049 -8.95502,-13.97583 -15.07411,-17.14095 -5.06772,-2.6213 -14.65335,-4.73531 -25.11918,-5.53978 -7.94549,-0.61074 -8.89883,-0.48808 -10.9285,1.40611 -1.223,1.14137 -4.07476,3.12232 -6.33725,4.4021 -3.62912,2.05283 -4.01105,2.60414 -3.24279,4.68094 0.74913,2.02509 1.2541,2.23434 3.61361,1.49745 C 462.76574,335.38547 468.275,335 473.5,335 c 8.20588,0 10.276,0.36374 15.1965,2.67018 7.2549,3.40067 13.66646,9.81224 17.38429,17.38429 C 508.68432,360.35705 509,362.02733 509,370.5 c 0,8.22152 -0.36176,10.2719 -2.68817,15.23579 -6.84804,14.61176 -23.54353,23.63436 -38.71742,20.92372 -3.07692,-0.54966 -6.37901,-1.30744 -7.33797,-1.68396 -1.26474,-0.49658 -1.98208,-0.0398 -2.6121,1.6633 -0.77355,2.09111 -0.35877,2.63903 3.7927,5.01003 2.56367,1.46418 5.25672,3.37966 5.98454,4.25663 1.70823,2.05829 9.88708,2.10533 21.25885,0.12226 z m -210.85,-12.60256 c 2.72048,-0.75542 3.66776,-1.48755 3.26905,-2.52658 -3.23747,-8.4367 -4.07702,-14.73611 -4.05136,-30.39863 0.0254,-15.51852 0.91768,-22.2324 4.03385,-30.35301 0.79324,-2.06715 -8.37714,-4.01752 -16.00927,-3.40489 -3.40731,0.27351 -8.29032,1.4241 -10.85113,2.55687 -6.50834,2.87894 -14.19023,10.40944 -17.41792,17.07464 -2.30402,4.75784 -2.72738,6.93855 -2.74249,14.12639 -0.0148,7.06659 0.41647,9.4275 2.55767,14 4.1524,8.86738 12.6066,16.23345 21.88117,19.06487 3.75729,1.14706 14.98885,1.06591 19.33043,-0.13966 z m 210.45392,-2.28231 c 6.76138,-3.46927 12.41919,-9.32127 15.9363,-16.48324 2.39278,-4.87247 2.77385,-6.8419 2.73984,-14.15966 -0.0491,-10.55685 -3.00157,-17.42628 -10.5074,-24.44711 -6.22677,-5.82441 -12.49067,-8.66581 -20.52579,-9.31079 -7.63213,-0.61263 -16.80251,1.33774 -16.00927,3.40489 3.11617,8.12061 4.00843,14.83449 4.03385,30.35301 0.0257,15.6718 -0.8134,21.96065 -4.05826,30.41662 -0.87628,2.28355 4.89187,3.55798 14.60638,3.22716 6.9129,-0.23542 9.48668,-0.79573 13.78435,-3.00088 z M 290.46953,320.86155 c 3.17366,-5.19351 8.5638,-11.92346 13.51618,-16.87584 4.95238,-4.95238 11.68233,-10.34252 16.87584,-13.51618 4.75115,-2.90334 8.63845,-5.58207 8.63845,-5.95272 0,-1.74685 -6.57365,-10.30309 -10.00165,-13.01812 -6.77047,-5.36231 -12.58982,-7.35829 -21.49835,-7.37374 -6.49943,-0.0113 -9.05415,0.46999 -13.62001,2.56575 -7.86108,3.6083 -13.31016,8.90637 -17.12031,16.64589 -2.87118,5.83219 -3.25632,7.57734 -3.23151,14.64238 0.0312,8.89545 2.56272,15.9586 8.04234,22.43913 2.60562,3.08158 10.84485,9.0819 12.47063,9.0819 0.35727,0 3.02505,-3.8873 5.92839,-8.63845 z m 171.10435,5.80655 c 5.67268,-3.59751 9.56555,-8.20778 12.80779,-15.1681 2.06674,-4.43681 2.56744,-7.05053 2.59016,-13.52103 0.0248,-7.06504 -0.36033,-8.81019 -3.23151,-14.64238 -3.81015,-7.73952 -9.25923,-13.03759 -17.12031,-16.64589 -4.56586,-2.09576 -7.12058,-2.57702 -13.62001,-2.56575 -8.90853,0.0154 -14.72788,2.01143 -21.49835,7.37374 -3.428,2.71503 -10.00165,11.27127 -10.00165,13.01812 0,0.37065 3.8873,3.04938 8.63845,5.95272 11.27582,6.89045 23.50157,19.1162 30.39202,30.39202 2.90334,4.75115 5.57112,8.63845 5.92839,8.63845 0.35727,0 2.65903,-1.27435 5.11502,-2.8319 z m -247.20761,-8.70103 c 0.23111,-0.23111 -2.54658,-3.56514 -6.17263,-7.40895 -8.47917,-8.98836 -15.99108,-19.6024 -20.56541,-29.05812 -3.4965,-7.22769 -3.64099,-7.96444 -3.97972,-20.29155 l -0.3515,-12.79156 5.10526,-11.29516 c 2.8079,-6.21234 5.58512,-13.89097 6.17162,-17.06363 1.85139,-10.01508 -0.66794,-19.61594 -8.15817,-31.08983 l -4.93058,-7.55288 6.25743,4.25279 c 11.88101,8.0748 22.86914,11.04418 32.91209,8.89402 2.93994,-0.62943 10.47577,-3.41936 16.7463,-6.19985 l 11.40097,-5.05543 12.59903,0.38139 c 12.0224,0.36394 12.94231,0.54553 20.09904,3.96759 9.27233,4.43365 19.2421,11.47673 28.78792,20.33703 4.00836,3.72051 7.44387,6.59412 7.63446,6.38581 0.1906,-0.20831 2.15271,-4.7859 4.36025,-10.17243 l 4.0137,-9.79368 -5.14816,-3.78216 C 286.36684,165.07795 244.33123,144.57889 204.24582,133.62193 181.31288,127.35343 148.82199,122.50303 129.75,122.50084 l -7.25,-8.4e-4 8.4e-4,7.75 c 0.003,26.51759 7.18602,65.32884 17.7093,95.68499 11.01403,31.77175 29.3871,66.87214 48.60925,92.86434 l 5.595,7.56557 9.76584,-3.98881 c 5.37121,-2.19385 9.95492,-4.17791 10.18604,-4.40902 z m 340.03655,-2.27258 c 20.04538,-28.10596 38.69496,-65.24526 49.05476,-97.689 8.83338,-27.66346 15.02758,-64.01373 15.039,-88.25549 l 0.003,-7.25 -8.02844,0 c -17.43422,0 -46.23371,4.05601 -68.47156,9.64326 -41.41425,10.40533 -85.32897,31.43652 -122.18956,58.51779 l -5.18956,3.81274 4.05848,9.76311 c 2.23216,5.3697 4.2129,9.93353 4.40164,10.14184 0.18873,0.20831 3.62272,-2.6653 7.63108,-6.38581 9.54582,-8.8603 19.51559,-15.90338 28.78792,-20.33703 7.15673,-3.42206 8.07664,-3.60365 20.09904,-3.96759 l 12.59903,-0.38139 11.40097,5.05543 c 6.27053,2.78049 13.80636,5.57042 16.7463,6.19985 10.04295,2.15016 21.03108,-0.81922 32.91209,-8.89402 l 6.25743,-4.25279 -4.93058,7.55288 c -7.49023,11.47389 -10.00956,21.07475 -8.15817,31.08983 0.5865,3.17266 3.36372,10.85129 6.17162,17.06363 l 5.10526,11.29516 -0.3515,12.79156 c -0.33873,12.32711 -0.48322,13.06386 -3.97972,20.29155 -4.58222,9.47204 -12.0742,20.0514 -20.67218,29.19103 -3.68477,3.91691 -6.24959,7.29136 -5.69959,7.49877 0.55,0.20741 5.05,2.09905 10,4.20366 4.95,2.1046 9.33494,3.63957 9.74432,3.41104 0.40938,-0.22853 3.8557,-4.77804 7.6585,-10.11001 z M 72.64768,315.41292 c 19.529574,-11.51504 47.47063,-23.29071 75.36797,-31.76358 6.60861,-2.00713 12.12512,-3.98886 12.25891,-4.40382 0.13379,-0.41496 -1.54974,-4.32058 -3.74119,-8.67914 -11.39941,-22.67232 -22.76512,-53.74633 -27.95776,-76.43698 l -2.71652,-11.87059 -3.05048,3.87059 C 117.88271,192.37965 105.14414,212.23276 99.471764,222.5 86.08427,246.7319 75.5077,274.98097 69.09994,303.62041 66.5479,315.02671 66.04745,318.5 66.95599,318.5 c 0.2508,0 2.81206,-1.38918 5.69169,-3.08708 z m 601.38454,-1.54663 C 671.1686,294.77028 660.947,262.84489 650.22227,239.5 643.27743,224.38294 627.14573,197.49187 618.2506,186.20417 l -2.99125,-3.79583 -4.29169,16.79583 c -6.59754,25.81995 -17.71925,55.211 -28.03136,74.07774 -2.3832,4.36024 -3.05158,6.40814 -2.18492,6.69452 0.68674,0.22693 6.71992,2.02002 13.40706,3.98463 24.96585,7.33472 57.01068,20.99472 74.84156,31.9033 2.2,1.34591 4.38859,2.48953 4.86354,2.54138 0.47495,0.0518 0.55086,-1.99091 0.16868,-4.53945 z M 232.0064,312.32693 c 0.28912,-0.28911 -2.15302,-6.10595 -5.42697,-12.9263 -12.83113,-26.73001 -19.81643,-53.74771 -21.65477,-83.7561 l -0.69564,-11.35546 10.88549,0.68374 c 31.16546,1.95758 57.01462,8.66531 85.31089,22.13775 8.51045,4.05201 11.62334,5.1196 12.20124,4.18453 0.42672,-0.69045 1.56098,-4.15586 2.52059,-7.70092 l 1.74473,-6.44557 -6.44598,-5.96112 C 306.90069,207.90886 300.85,202.87255 297,199.99568 281.64958,188.52522 273.73267,185.5 259.06524,185.5 c -9.55824,0 -10.53758,0.19962 -17.59345,3.58613 -20.68194,9.92642 -32.56846,10.74682 -47.26328,3.26207 l -3.79149,-1.93118 1.93118,3.79149 c 7.34413,14.41875 6.75692,25.32189 -2.4449,45.39641 l -4.60922,10.05538 0.35296,11.74616 c 0.34564,11.50241 0.44051,11.92098 4.57193,20.16985 4.74478,9.47355 11.05911,18.20025 20.71626,28.63086 l 6.55581,7.08089 6.99485,-2.21774 c 3.84717,-1.21975 7.2314,-2.45428 7.52051,-2.74339 z M 541.4842,296.7062 c 2.79283,-3.68841 6.9764,-10.49686 9.29683,-15.12989 4.13142,-8.24887 4.22629,-8.66744 4.57193,-20.16985 l 0.35296,-11.74616 -4.60922,-10.05538 c -9.20182,-20.07452 -9.78903,-30.97766 -2.4449,-45.39641 l 1.93118,-3.79149 -3.79149,1.93118 C 540.89793,195.35006 532.63858,197.5 527,197.5 c -6.55707,0 -13.52041,-2.07635 -25.79106,-7.69045 l -9.79106,-4.47964 -11.20894,0.35363 c -12.95767,0.40879 -18.66112,2.30709 -30.42123,10.12519 -8.01864,5.33078 -24.13483,19.12929 -25.01191,21.41493 -0.50103,1.30568 3.28363,15.27634 4.13837,15.27634 0.16435,0 5.96182,-2.70891 12.88325,-6.01981 15.62816,-7.47579 35.33301,-14.11048 51.70258,-17.40843 12.68493,-2.55561 41.50586,-5.39923 42.69281,-4.21228 1.18059,1.18059 -1.6907,29.92224 -4.25979,42.64052 -3.33528,16.51133 -10.10538,36.60999 -17.48238,51.90063 -3.29049,6.82035 -5.73932,12.64402 -5.44185,12.94149 0.29747,0.29747 3.56718,1.53453 7.26603,2.74903 l 6.72518,2.20818 6.70316,-6.94347 c 3.68674,-3.81891 8.98821,-9.96126 11.78104,-13.64966 z m -299.79603,13.68488 5.52174,-1.10893 -0.49151,-9.39677 c -0.47939,-9.16513 -0.40138,-9.59396 3.16477,-17.39544 2.01096,-4.39926 3.92421,-9.95335 4.25167,-12.34243 0.75419,-5.50245 -1.6242,-13.94279 -5.41352,-19.21131 -4.6835,-6.51174 -4.60403,-6.63994 1.62163,-2.61611 11.53271,7.45395 18.51693,7.79355 32.14699,1.56308 7.78993,-3.56087 8.24214,-3.64355 17.32908,-3.16824 l 9.33041,0.48804 1.15082,-5.48656 c 0.63295,-3.01761 0.90335,-5.88698 0.60088,-6.37638 -0.83647,-1.35345 -13.28459,-7.42298 -25.22353,-12.29866 C 262.90768,213.74249 234.37015,207.5 214.63025,207.5 l -7.72504,0 0.31826,6.75 c 0.96454,20.45767 4.89264,41.10491 11.43358,60.09828 4.02968,11.70124 15.55862,37.15172 16.82955,37.15172 0.37391,0 3.16462,-0.49902 6.20157,-1.10892 z M 511.84119,299.66027 C 525.0448,272.06165 533.5,239.1952 533.5,215.46969 l 0,-8.27364 -12.25,0.61808 c -26.48078,1.33611 -51.71515,8.08591 -79.68517,21.31453 -6.28934,2.97459 -11.6043,5.57748 -11.81102,5.7842 -0.20672,0.20672 0.17786,3.0567 0.85463,6.33329 l 1.23049,5.95743 9.33623,-0.48835 c 9.0938,-0.47566 9.54395,-0.3934 17.3349,3.16794 13.63006,6.23047 20.61428,5.89087 32.14699,-1.56308 6.22566,-4.02383 6.30513,-3.89563 1.62163,2.61611 -3.78932,5.26852 -6.16771,13.70886 -5.41352,19.21131 0.32746,2.38908 2.24071,7.94317 4.25167,12.34243 3.56367,7.79606 3.64387,8.23589 3.16641,17.36416 l -0.48988,9.36551 4.60332,1.00249 c 2.53183,0.55138 5.31812,1.06447 6.19176,1.1402 1.09312,0.0948 3.35472,-3.55424 7.25275,-11.70203 z M 258,307.02612 l 4,-0.61997 0.005,-8.70308 c 0.004,-7.32022 0.4272,-9.6048 2.6604,-14.37822 3.71466,-7.93998 9.86096,-14.22037 17.68747,-18.07335 5.90108,-2.90509 7.51266,-3.24853 15.25003,-3.24993 l 8.65166,-0.002 1.0231,-5.5 c 0.56271,-3.025 0.64181,-5.90355 0.17578,-6.39677 -0.46602,-0.49322 -4.18043,-1.11068 -8.25423,-1.37212 -6.92049,-0.44413 -7.95233,-0.22908 -15.71243,3.27471 -9.93562,4.48605 -18.12836,5.51669 -24.94807,3.13843 -2.45353,-0.85562 -4.58972,-1.42692 -4.74709,-1.26955 -0.15737,0.15738 0.44581,2.43427 1.34041,5.05976 2.30509,6.76506 1.36629,14.2763 -3.0281,24.22754 -2.83663,6.42367 -3.60427,9.44476 -3.60427,14.1849 0,7.56074 1.3582,11.46911 3.75078,10.79329 0.96207,-0.27175 3.54922,-0.77308 5.74922,-1.11407 z m 233.52475,-1.09122 c 2.14941,-5.65337 1.16488,-14.18147 -2.62902,-22.7729 -4.39439,-9.95124 -5.33319,-17.46248 -3.0281,-24.22754 0.8946,-2.62549 1.49778,-4.90238 1.34041,-5.05976 -0.15737,-0.15737 -2.29356,0.41393 -4.74709,1.26955 -6.81971,2.37826 -15.01245,1.34762 -24.94807,-3.13843 -7.7601,-3.50379 -8.79194,-3.71884 -15.71243,-3.27471 -4.0738,0.26144 -7.78821,0.8789 -8.25423,1.37212 -0.46603,0.49322 -0.38693,3.37177 0.17578,6.39677 l 1.0231,5.5 8.65166,0.002 c 7.73737,10e-4 9.34895,0.34484 15.25003,3.24993 7.82651,3.85298 13.97281,10.13337 17.68747,18.07335 2.23388,4.77486 2.65592,7.05724 2.6604,14.38741 l 0.005,8.71225 5,0.91895 c 2.75,0.50542 5.34864,0.97241 5.77475,1.03774 0.42611,0.0653 1.21361,-1.03549 1.75,-2.4463 z M 335.77547,280.86154 c -0.12349,-1.02385 -0.63919,-4.33654 -1.14599,-7.36154 -2.62149,-15.64714 5.73922,-31.42537 20.43276,-38.56043 5.26934,-2.55875 7.00719,-2.88333 15.43776,-2.88333 8.43057,0 10.16842,0.32458 15.43776,2.88333 16.86855,8.19122 24.85351,27.31377 19.04597,45.61169 -0.46115,1.45296 -0.0228,2.18371 1.69018,2.81737 2.04698,0.75723 2.61883,0.31978 4.97497,-3.80567 1.46418,-2.56367 3.37966,-5.25672 4.25663,-5.98454 2.88555,-2.3948 1.31284,-21.41069 -2.64584,-31.99121 C 410.32814,233.75198 401.9784,225.14347 395.1394,222.90535 383.00286,218.93357 375.192,212.82114 372.4053,205.11466 371.68641,203.1266 370.82902,201.5 370.5,201.5 c -0.32902,0 -1.18641,1.6266 -1.9053,3.61466 -2.7867,7.70648 -10.59756,13.81891 -22.7341,17.79069 -3.80107,1.24393 -6.55773,3.16889 -10.58607,7.39218 -6.30006,6.60496 -9.08516,13.01132 -10.69813,24.60814 -1.8352,13.19463 -1.52319,15.9917 2.34986,21.06567 1.88445,2.46876 3.70747,5.37464 4.05116,6.45751 0.49362,1.55525 1.08681,1.79296 2.82373,1.13154 1.3317,-0.50711 2.1103,-1.57144 1.97432,-2.69885 z M 348.5,278.78467 c 4.91448,-1.33913 10.28085,-1.77116 22,-1.77116 14.72849,0 18.70895,0.53317 30.08702,4.03006 4.05059,1.24489 5.25907,-15.7973 1.79094,-25.25606 -3.21375,-8.76493 -12.37268,-17.43335 -21.34937,-20.20596 -8.47022,-2.61619 -12.58696,-2.61619 -21.05718,0 -8.97669,2.77261 -18.13562,11.44103 -21.34937,20.20596 -3.46813,9.45876 -2.25965,26.50095 1.79094,25.25606 0.87286,-0.26826 4.51202,-1.28477 8.08702,-2.2589 z M 322.59783,253.5 c 1.76526,-11.78895 4.42423,-17.66361 11.18384,-24.7093 4.49466,-4.68489 7.21676,-6.6215 11.08776,-7.88828 7.49804,-2.45373 13.75966,-5.82482 16.82696,-9.05917 3.4216,-3.60796 6.6357,-10.83909 7.44624,-16.75263 0.34607,-2.52484 0.95689,-4.59062 1.35737,-4.59062 0.40048,0 1.0113,2.06578 1.35737,4.59062 0.81054,5.91354 4.02464,13.14467 7.44624,16.75263 3.05579,3.22222 9.32585,6.60464 16.73908,9.02998 6.22877,2.03783 15.39435,10.91568 18.46186,17.8823 2.57874,5.85657 4.99545,18.09907 4.99545,25.30578 l 0,5.38537 6.25,-3.22334 c 3.4375,-1.77284 6.41816,-3.3165 6.6237,-3.43037 1.06892,-0.59219 -5.67721,-28.74311 -9.99662,-41.71487 C 412.22486,190.58958 396.04827,162.50217 376.25713,141 l -5.52255,-6 -2.26813,2 c -4.6033,4.05913 -17.52744,20.30655 -24.26145,30.5 -14.84307,22.46832 -27.50528,53.62189 -33.24433,81.79297 -1.48944,7.31113 -2.5399,13.38613 -2.33437,13.5 0.20554,0.11387 3.0737,1.59687 6.3737,3.29556 l 6,3.08852 0.23739,-4.08852 c 0.13057,-2.24869 0.74276,-7.46353 1.36044,-11.58853 z m 8.51256,-68.21921 c 7.67254,-15.23563 20.97196,-34.17693 32.33313,-46.04949 l 6.91982,-7.2313 4.6537,4.5 c 10.5022,10.15534 24.55096,29.59178 33.51384,46.36635 l 5.10237,9.5494 7.18338,-5.29647 c 3.95085,-2.91305 9.73648,-6.98498 12.85696,-9.04872 l 5.67359,-3.75225 -1.45588,-4.12639 c -2.53969,-7.19824 -6.00932,-12.06161 -14.16162,-19.85028 -7.19116,-6.87038 -8.71669,-7.83704 -16.3309,-10.3481 -19.86517,-6.55125 -29.31789,-14.56114 -34.51123,-29.24354 -1.02134,-2.8875 -2.09574,-5.25 -2.38755,-5.25 -0.29181,0 -1.36621,2.3625 -2.38755,5.25 -5.19334,14.6824 -14.64606,22.69229 -34.51123,29.24354 -7.61421,2.51106 -9.13974,3.47772 -16.3309,10.3481 -8.16032,7.79633 -11.62163,12.65119 -14.17063,19.8758 l -1.46488,4.15191 9.6826,6.54107 c 5.32542,3.59759 11.03259,7.6608 12.68259,9.02936 1.65,1.36856 3.10684,2.50448 3.23743,2.52426 0.13058,0.0198 1.87342,-3.21269 3.87296,-7.18325 z m -30.13087,-15.68756 c 0.72762,-3.3128 6.58669,-13.4191 9.84091,-16.97455 6.01592,-6.57278 13.83038,-12.0045 20.35283,-14.14693 23.56007,-7.7388 33.71065,-18.08209 37.50959,-38.22175 0.70029,-3.712495 1.51801,-6.749995 1.81715,-6.749995 0.29914,0 1.11686,3.0375 1.81715,6.749995 3.79894,20.13966 13.94952,30.48295 37.50959,38.22175 6.52245,2.14243 14.33691,7.57415 20.35283,14.14693 3.25422,3.55545 9.11329,13.66175 9.84091,16.97455 0.35114,1.59872 1.01038,2.90677 1.46498,2.90677 0.4546,0 4.66658,-2.26012 9.35996,-5.02249 l 8.53342,-5.02249 -1.49134,-5.22751 C 441.27276,98.988985 414.12781,49.710294 376.95735,10.307639 l -6.71733,-7.1207174 -5.88481,6.4065393 C 326.3249,50.995406 299.25823,99.869435 283.69406,155.2425 l -2.03571,7.2425 8.17083,4.91763 c 4.49395,2.7047 8.69757,4.95807 9.34136,5.0075 0.6438,0.0494 1.45784,-1.21818 1.80898,-2.8169 z m -17.72135,-20.85525 c 5.87244,-20.26894 13.3493,-39.00839 24.33363,-60.98798 7.34434,-14.695994 10.1616,-21.25 9.13436,-21.25 -0.81694,0 -6.71453,1.169973 -13.10575,2.599939 C 274.98097,75.5077 246.7319,86.084272 222.5,99.471765 212.25633,105.13113 192.38436,117.87907 186.16238,122.7825 l -3.83762,3.02435 16.83762,4.25677 c 25.04111,6.33072 48.18607,14.98491 70.33762,26.30013 5.225,2.66897 9.69291,4.68608 9.92868,4.48245 0.23578,-0.20363 1.95905,-5.65233 3.82949,-12.10822 z M 493.5,146.09734 c 16.19065,-6.79035 29.94924,-11.36538 48.29583,-16.05942 l 16.79583,-4.29727 -3.79583,-2.99125 C 548.60963,117.87444 528.71367,105.11455 518.5,99.471765 503.1052,90.96654 487.70843,84.237866 469,77.839341 453.48761,72.533904 424.18886,65.477803 422.92395,66.742715 c -0.28322,0.28322 0.89684,2.909334 2.62235,5.835809 11.79925,20.011581 24.98299,51.240406 32.02847,75.867066 1.66074,5.80493 3.19596,11.08244 3.4116,11.72781 0.25008,0.74843 4.30745,-0.79061 11.20285,-4.24948 5.94593,-2.98258 15.53578,-7.40455 21.31078,-9.82658 z"
     id="path3398"
     inkscape:connector-curvature="0" />
</svg>
