<svg xmlns:svg="http://www.w3.org/2000/svg" xmlns="http://www.w3.org/2000/svg" version="1.1" width="740.5" height="740.5" viewBox="0 0 740.5 740.5"><path d="M361.1 731.3C349.3 718.5 338.9 705.2 329 690.5l-8.4-12.5-13.3-2.7c-15.1-3.1-35.4-9.1-49.1-14.3-22.1-8.6-50.8-24.2-70.6-38.7l-8.4-6.1-12.6 1.7c-11.4 1.6-34.7 3.5-42.8 3.6l-3.2 0 0-10.9c0-12.1 1.3-27.3 3.5-39.9l1.4-8.3-6.2-8.4C93.5 518.9 74.8 476.8 65.8 433.3L63.2 420.5 50.6 412.1C35.7 402.1 20.3 389.9 8.5 378.6L0 370.5 7.5 363.5C18.9 352.7 38.1 337.5 51.4 328.5 62.5 321.1 63.5 320.2 64 316.8 71.6 272.6 91.4 225.6 117.9 189.1L125.2 179 123.4 167c-1-6.6-2.1-17.8-2.4-25-0.3-7.1-0.8-15-1-17.4l-0.5-4.4 17.3 0.6c9.5 0.4 22.9 1.5 29.7 2.6l12.5 1.9 10.1-7.4c36.2-26.4 83.6-46.4 127.8-53.9 3.3-0.6 4.3-1.5 7.4-6.3 10-15.7 26-36.3 39.2-50.2L370.5 0l7.6 8c11.1 11.7 23.4 27.2 33.5 42.2 8.3 12.3 9.2 13.3 12.7 13.8 44.2 7.5 91.5 27.5 127.8 54l10.1 7.4 7.9-1.4C582.1 122 598.7 120.5 610.2 120.5l10.3 0 0 10.4c0 11.7-1.4 26.9-3.5 39.5l-1.4 8.4 6.3 8.6c12.6 17.1 24 36.8 32.6 56.1 9.1 20.4 18.7 51.6 22.4 73.3 0.6 3.5 1.6 4.4 12.4 11.6 6.4 4.3 15.2 10.6 19.5 13.9 9.8 7.5 31.7 27 31.7 28.2 0 2.8-33.7 30.7-51.1 42.3l-11.5 7.7-2.6 12.8c-9 43.5-27.7 85.7-53.3 120.6l-6 8.2 1.8 12.5c2 13.3 3.9 44.9 2.8 46.3-1.3 1.5-50.2-2.6-56.6-4.8-0.6-0.2-5.8 2.9-11.5 7-35.8 25.6-76.5 43.5-118.6 52.2L420.4 678l-8.4 12.5c-4.6 6.9-11.8 16.8-16 22-9 11.2-24.3 28-25.5 28-0.5 0-4.7-4.2-9.4-9.2zm17.6-2c23-25.5 38.3-47.9 53.7-78.5 10.2-20.4 20.3-47 26-68.5l1-3.7-8.8-5c-9.5-5.4-10-5.6-10-3.8 0 3.4-6.4 14.1-12 20.1-7.6 8.1-9.8 9.5-22.5 14.3-16.9 6.3-24.2 12.2-29.6 23.9-1.5 3.3-3.4 9.1-4.1 12.8-0.7 3.7-1.5 6.8-1.8 6.8-0.3 0-1.1-3-1.8-6.7-0.7-3.7-2.5-9.5-4.1-12.8C359.2 616.2 351.9 610.4 335 604.1c-12.7-4.7-14.9-6.2-22.5-14.3-5.6-5.9-12-16.7-12-20.1 0-1.9-0.5-1.7-10 3.8l-8.8 5.1 2 7.2c11.9 42.8 32.2 84.4 57.5 117.8 9 11.9 28 33.8 29.3 33.8 0.4 0 4.1-3.7 8.2-8.2zm-71-75.8c-11.1-22.2-18.9-41.6-24.4-61.1-1.8-6.2-3.3-11.5-3.5-11.7-0.2-0.2-6.5 2.6-14.1 6.2-25.3 12.1-47.9 20.2-71.7 25.7-5.5 1.3-10.3 2.6-10.7 2.9-0.9 0.7 16.9 13.2 29.9 20.9 28.9 17.1 60.5 29.5 93.8 36.5 6.1 1.3 11.1 2.3 11.2 2.2 0.1-0.1-4.6-9.8-10.5-21.6zm150.2 13.4c22.6-6.5 48.4-17.7 69.8-30.5 13.3-7.9 30.8-20.2 29.9-21-0.4-0.3-5.2-1.6-10.7-2.9-22.3-5-47.3-14-71.4-25.6-7.4-3.5-13.7-6.2-14.2-5.9-0.4 0.3-1.1 2-1.5 3.7-1.3 6-8.6 28.1-12.6 38.1-5.7 14.3-12.3 28.5-19 40.8-3.2 5.9-5.8 10.9-5.8 11.1 0 0.8 23-4.4 35.4-8zM371.5 634.8c0-3.4 6-14.3 10.6-19.2 5.9-6.3 10.6-9.1 23.9-13.9 7.8-2.9 11.8-5 15.3-8.1 9.5-8.5 13.6-14.1 16.7-23.1l1.3-3.7-8.7-5.7c-4.8-3.2-10.3-7-12.3-8.6-2-1.6-4-2.9-4.5-2.9-0.5 0-2.2 2.7-3.8 6C403 569.9 389.4 589.3 376 604l-5.5 6-4.5-5c-14.6-16.1-26-32.1-33.6-47-2.4-4.7-4.7-8.5-5.2-8.5-0.5 0-2.5 1.3-4.5 2.9-2 1.6-7.5 5.4-12.3 8.6l-8.7 5.7 1.3 3.7c3.2 9 7.2 14.5 16.7 23.1 3.5 3.1 7.5 5.2 15.3 8.1 13.3 4.9 18 7.6 23.9 13.9 4.6 4.9 10.6 15.8 10.6 19.2 0 1 0.5 1.8 1 1.8 0.6 0 1-0.8 1-1.7zM163.5 616c41.4-6 83.2-20.2 119.3-40.6 10.5-5.9 35.7-22.3 40.3-26.2l3.1-2.6-4-9.8c-2.2-5.4-4.2-9.9-4.3-10.1-0.2-0.2-3.8 2.8-7.9 6.7-9.7 9.1-18.6 15.4-27.7 19.7-15.2 7.2-29.1 7.2-44.8 0-12.7-5.9-16.3-6.9-24-6.8-7.9 0-15.5 2.6-23.6 7.9-3.2 2.1-6.5 4.2-7.2 4.7-0.7 0.4 0.8-2.2 3.2-5.9 7.9-11.7 10.6-21.9 8.6-32-0.6-3.2-3.4-10.7-6.2-16.6l-5-10.7 0.3-13.3 0.3-13.3 4.2-8.4c4.7-9.4 10.1-16.8 19.9-27.7 3.6-4 6.4-7.4 6.2-7.6-0.4-0.3-17.9-7.5-19.2-7.8-1.1-0.3-12.5 15.4-21 29.1-9.2 14.6-25.5 47.8-31.5 64.2-11.9 32.4-20.1 74.3-20.1 102.9l0 7.4 15.3-0.6c8.4-0.4 20-1.3 25.8-2.2zM618.2 603.8c-2.7-62.1-26.8-127.8-66.9-182.4l-4.9-6.7-6.2 2.8c-3.4 1.5-7.9 3.3-10 4-2.1 0.7-3.7 1.5-3.7 1.8 0 0.3 2.6 3.3 5.8 6.7 8.8 9.4 15.9 19.2 20.5 28.5l4.2 8.4 0.3 13.3 0.3 13.3-5 10.7c-2.8 5.9-5.6 13.4-6.2 16.6-2 10.1 0.7 20.3 8.6 32 2.5 3.7 3.9 6.4 3.2 5.9-0.7-0.4-3.9-2.6-7.2-4.7-8.1-5.3-15.7-7.9-23.6-7.9-7.7 0-11.2 1-24 6.8-15.5 7.1-29.2 7.2-44.4 0.2-7.8-3.6-23.6-15.1-30.5-22.2-2.5-2.5-4.8-4.6-5.2-4.6-0.4 0-1.3 1.7-1.9 3.8-0.7 2.1-2.5 6.6-4 10l-2.8 6.2 5.7 4.4c7.8 6 23.6 16.2 36.7 23.7 46.4 26.6 103 43 150.9 43.8l10.9 0.2-0.7-14.7zm-241.1-4.5c26.9-29 47.3-72.5 54.9-117 0.6-3.4 0.4-3.9-2.2-5-1.5-0.7-4.4-2.2-6.4-3.4l-3.6-2.2-0.6 9.2c-1.6 22.7-8.8 34.1-25.8 40.5-4.6 1.7-10 4.5-12.1 6.2-4.4 3.7-8.6 11.6-9.5 18.2-0.4 2.7-1 4.8-1.4 4.8-0.4 0-1-2.2-1.4-4.8-0.9-6.5-5-14.5-9.5-18.2-2-1.7-7.4-4.4-12.1-6.2-16.9-6.4-24.2-17.8-25.8-40.5l-0.6-9.2-3.8 2.4c-2.1 1.3-4.2 2.4-4.7 2.4-0.5 0-1.6 0.6-2.6 1.3-1.7 1.2-1.6 1.9 0.8 14 7.1 34.9 24.1 72.1 45 98.2 5.5 6.9 13.7 15.5 14.6 15.5 0.4 0 3.3-2.8 6.5-6.2zM137.3 516.5c4.6-13.2 11.6-29.9 18.2-43l6-12-4.2-1.1c-25.1-6.6-57-19.5-81.6-32.9l-9.4-5.1 0.7 4.8c1.3 9.2 6.7 29.6 11.6 43.8 10.3 29.9 24.4 57 41.6 80.3l5.6 7.6 4.3-16.9c2.4-9.3 5.6-20.7 7.2-25.4zM628 541c14.8-22.3 25.5-44.1 34.4-69.9 4.9-14.3 10.3-34.6 11.7-43.8l0.7-4.7-17.4 8.9c-24.3 12.5-44.1 20.4-70.5 28l-7.2 2.1 6.3 12.7c11.6 23.4 20.4 47.7 26.1 72L615 558.6l2.8-3.3C619.4 553.5 624 547.1 628 541Zm-348.2 10.8c9.2-4.4 19.9-11.9 29.3-20.7l7.8-7.3-1.7-6.5c-1-3.5-2.1-7-2.5-7.7-0.6-0.9-3.3 0-10.7 3.6-27.6 13.6-55.7 21.1-85.3 22.8l-12.1 0.7 0-3.9c0-2.1 0.5-9.1 1.1-15.4 2.3-25.5 9.7-52.2 21-75.9 3.3-6.8 5.8-12.6 5.6-12.8-0.2-0.2-3.6-1.3-7.7-2.5l-7.3-2.2-5.9 6.5c-9.4 10.3-17.4 21.4-21.5 29.7-3.6 7.3-3.8 8.3-4.1 19.3l-0.4 11.6 5 11.4c5.5 12.5 7.1 18 7.1 24.9 0 5.1-2.2 13.5-5.2 19.3-1.1 2.1-1.6 3.7-1.1 3.5 18-8.8 27.3-8.7 46.3 0.3l10.5 5 12.5-0.3c11.7-0.3 12.9-0.5 19.3-3.5zm223.7-1.2c19.3-9 28.4-9 46.4-0.2 0.5 0.2-0.1-1.3-1.1-3.5-3-5.8-5.2-14.2-5.2-19.3 0-6.9 1.6-12.5 7.1-24.9l5-11.4-0.4-11.6c-0.4-11-0.6-12-4.1-19.3-4-8.3-12.1-19.5-21.4-29.7l-5.9-6.4-6.6 1.8c-3.6 1-7.1 2.1-7.7 2.5-0.8 0.5 0.8 4.7 4.9 13.3 11.2 23.4 18.6 50.2 20.9 75.7 0.6 6.3 1.1 13.2 1.1 15.3l0 3.8-5.4 0c-9.1 0-25.5-2-38.4-4.6-16.8-3.4-34-9.3-50.1-17-9.1-4.4-13.7-6.1-14.1-5.3-0.4 0.6-1.5 4-2.5 7.6l-1.7 6.5 3.9 4c5.3 5.5 18.1 15.6 24.7 19.7 11.2 6.7 16 8.1 28.6 8.1l11.4 0 10.6-4.9zM372.9 535c2.7-6.5 9.3-11.9 19.3-15.7 14.6-5.6 21.8-15.4 24.3-33.2 1.8-13 1.5-16-2.2-20.9-1.8-2.4-3.7-5.2-4.3-6.1-0.8-1.3-1.7-1.6-3.3-1.1-1.9 0.6-2.2 1.2-1.6 3.4 2.9 10.8 2.1 20.4-2.8 29.4-3.7 7-9.2 12.1-16.7 15.6C380.8 508.6 378.7 509 370.5 509c-8.2 0-10.3-0.4-15.1-2.6-17-7.9-24.7-25.8-19.5-44.9 0.6-2.1 0.3-2.8-1.8-3.7-2.2-1-2.6-0.9-3.1 0.8-0.3 1.1-2.2 4-4.1 6.5-3.9 5.1-4.2 7.9-2.3 21.1 1.6 11.5 4.4 18 10.6 24.5 4.4 4.6 6.7 6.1 13.7 8.8 10 3.8 16.6 9.2 19.3 15.7 1 2.5 2.1 4.5 2.4 4.5 0.3 0 1.3-2 2.4-4.5zM235 531.9c21.6-2.9 41.1-8.9 62.8-19.2l13.8-6.6-0.6-3.1c-0.4-1.7-0.9-4.4-1.2-6.1l-0.5-3-9.8 0.4c-9.5 0.4-10 0.3-17.7-3.2-4.3-2-9.8-3.9-12.1-4.2-5.1-0.8-12.7 1.4-18.7 5.5-6.8 4.6-7 4.6-3.6-0.4 8.1-11.7 8.6-18.8 2.5-32.7-3.4-7.9-3.6-8.7-3.3-17.7L247 432l-5.4-1.2c-3-0.7-5.9-0.9-6.4-0.6-0.5 0.3-3.3 5.6-6.2 11.7-13.1 27.7-19.9 53.4-21.2 79.9l-0.6 12.8 8.4-0.6C220.2 533.7 229 532.7 235 531.9ZM533.6 525.5c-0.6-25.8-8.4-55.9-21.9-84.3l-5.6-11.8-3.6 0.7c-9.2 1.7-8.6 0.9-8.3 11.4 0.3 9 0.1 9.8-3.3 17.7-6.1 14-5.6 21 2.5 32.7 3.4 5 3.2 5-3.6 0.4-6-4-13.6-6.3-18.7-5.5-2.3 0.4-7.7 2.3-12 4.2-7.4 3.4-8.3 3.5-17.5 3.3l-9.6-0.3-1.3 5c-0.7 2.7-1.3 5.4-1.3 6 0 1.8 24.5 13 39 17.8 20 6.7 48.8 11.8 62.4 11.2L533.8 534 533.6 525.5ZM384.7 504.3c14.8-6.8 22.7-23.5 18.8-39.7-1-4.1-1.6-5-2.9-4.5-8 3.1-14.5 4-30.1 4-15.6 0-22.1-0.9-30.1-4-1.3-0.5-1.9 0.4-2.9 4.5-3.3 13.8 2.1 28.9 13.1 36.5 10.1 7 23.2 8.2 34.1 3.2zM307.4 491c0.6-0.6 0.6-2.9-0.2-6.5L306 479l-9-0.1c-10.7-0.1-16-2.1-23.1-8.6-8.8-8.1-12.9-18-12.2-29.3l0.4-6.2-5.8-1c-3.8-0.6-6.1-0.6-6.4 0-0.3 0.5-0.8 4.2-1.1 8.1-0.4 6.6-0.2 7.8 3.4 15.6 3.4 7.5 3.8 9.3 3.9 16.4 0 5.6-0.5 8.9-1.6 11.1l-1.7 3.1 5.7-1.9c7.5-2.6 13.8-1.9 23.8 2.7 7.2 3.2 8.6 3.5 16.1 3.3 4.5-0.1 8.6-0.7 9.2-1.2zm151-2.1c10.5-4.6 16.7-5.3 24.3-2.7l5.7 1.9-1.7-3.1c-1.2-2.2-1.7-5.4-1.6-11.1 0-7.1 0.5-9 3.9-16.4 3.6-7.8 3.8-8.9 3.4-15.6-0.3-3.9-0.7-7.6-1.1-8.2-0.4-0.7-2.6-0.7-6.5-0.1l-5.8 0.9 0.4 6.3c0.7 11.3-3.4 21.2-12.2 29.3-7.2 6.6-12.4 8.6-23.3 8.6l-9.1 0.1-0.9 5.8c-0.9 5.4-0.8 5.9 1.1 6.7 1.2 0.5 5.1 0.9 8.7 0.9 5.4 0.1 8-0.6 14.8-3.5zM311.6 474.3c3-1.4 6.9-3.8 8.8-5.4 3.1-2.7 9.1-10.9 9.1-12.5 0-0.4-2.6-2.2-5.7-3.9-15.5-8.7-26.6-20.3-37.8-39.5-1-1.7-1.2-1.7-4.4-0.1-5.3 2.7-12 10.2-14.9 16.4-3.7 8-3.8 19.3-0.1 27.2 8.3 17.9 27.9 25.6 45 17.8zm140.9 1.6c10.2-3 17.2-9.2 21.9-19.4 3.7-8 3.7-19.2-0.1-27.2-2.9-6.2-9.7-13.6-14.9-16.4-3.2-1.6-3.4-1.6-4.4 0.1-11.2 19.1-22.3 30.7-37.8 39.5-3.2 1.8-5.7 3.6-5.7 3.9 0 1.7 5.9 9.9 9 12.4 9.4 7.9 20.9 10.4 32 7.1zm-58-16.4c32.9-9.4 57.6-34.8 65.8-67.7 2.6-10.6 2.4-33.4-0.4-43.9-4.5-16.6-12.4-30.4-24.4-42.3-11.8-11.8-23.2-18.4-40.8-23.8-7.7-2.4-10.2-2.6-24.1-2.6-13.9 0-16.4 0.3-24.1 2.6-17.6 5.4-29 12-40.8 23.8-11.9 11.9-19.9 25.7-24.4 42.3-2.8 10.5-3.1 33.3-0.4 43.9 9 35.9 37.9 63 74.5 69.7 8.3 1.5 30.8 0.4 39.1-2zm-28.3-12.2c-5.8-1.3-10.3-4.5-13-9.2-4.6-7.9-4.3-15.4 1-23.1 2-2.9 2.3-4 1.4-5.1-2.1-2.5-3.7-1.5-4.4 2.9-3 17.9-22.9 24.9-35 12.3-7.2-7.5-8.1-16.9-2.5-25.8 3.1-4.9 9.6-8.7 14.9-8.7 3.8 0 5.2-2.4 2.8-4.8-1.5-1.5-1.8-1.4-3.9 0.6-3.5 3.3-11 5.5-16.1 4.8C300.8 389.5 293.5 381.1 293.5 370.7c0-6.5 1-9.2 5.6-14.2 7.3-8.1 20.2-8.7 28.7-1.3 1.4 1.2 2 1.3 3.3 0.3 2.7-2.2 1.7-3.8-2.7-4.4-23-3.5-24.8-34.6-2.4-40.7 11.2-3 23.2 5.4 25.2 17.8 0.7 4.4 2.3 5.4 4.5 2.8 1-1.2 0.7-2.1-1.3-4.7C343.9 312.7 353.5 293.5 370.5 293.5c5.6 0 10 1.8 14.3 5.9 7.5 7 8.4 18.5 2 26.9-2 2.7-2.3 3.6-1.3 4.8 2.2 2.6 3.8 1.6 4.5-2.8 2-12.4 13.9-20.9 25.2-17.8 14.6 3.9 20.5 19.7 12 32.2-2.8 4.1-8.8 7.6-14.5 8.5-4.4 0.7-5.4 2.2-2.7 4.4 1.2 1 1.8 1 3.3-0.3 8.4-7.4 21.3-6.8 28.7 1.3 4.5 5 5.6 7.7 5.6 14.2 0 10.4-7.3 18.8-17.6 20.3-5.1 0.8-12.6-1.4-16.1-4.8-2.1-2-2.5-2.1-3.9-0.6-2.5 2.5-1 4.4 4 5 9.8 1.1 17.1 9.4 17.1 19.7 0.1 17.4-19.3 26.9-33.2 16.4-3.8-2.9-6.7-8.2-7.7-14.1-0.7-4.4-2.3-5.4-4.4-2.9-0.9 1.1-0.6 2.2 1.4 5.1 5.4 7.9 5.6 15.9 0.6 23.7-4.3 6.8-13.3 10.4-21.4 8.6zm11.1-2.9c3.4-1.3 8-5.5 9.9-9.1 2.3-4.4 1.8-12.5-1.1-17.5-1.4-2.4-2.9-4.3-3.3-4.3-0.4 0-3 2.3-5.7 5-2.7 2.8-5.6 5-6.5 5-0.9 0-3.8-2.2-6.5-5-2.7-2.7-5.3-5-5.7-5-0.4 0-1.9 2-3.3 4.3-2.9 5-3.4 13-1.1 17.5 1.8 3.5 6.4 7.8 9.6 9.1 3.4 1.3 10.2 1.4 13.7 0.1zm-37.3-18.3c4.7-2.6 8.7-9 8.7-14l0-3.6-7.7-0.3L333 408l-0.3-7.7-0.3-7.7-2.9 0c-9.2 0-17.1 8.2-17.2 18-0.1 14.7 14.4 23 27.5 15.7zM415 428.4c8.6-2.4 13.7-9.1 13.7-17.9C428.6 400.7 420.7 392.5 411.5 392.5l-2.9 0-0.3 7.8L408 408l-7.7 0.3-7.7 0.3 0 3.6c0 6.9 5.9 14 13.8 16.3 3.8 1.1 4.2 1.1 8.7-0.1zM377 414.5l5.9-6-12.4 0-12.4 0 5.9 6c3.3 3.3 6.2 6 6.5 6 0.3 0 3.2-2.7 6.5-6zm-25.5-8.3c0-0.1-3.8-4.1-8.5-8.7l-8.5-8.5 0 8.7 0 8.7 8.5 0c4.7 0 8.5-0.1 8.5-0.3zm44.2-10.5 10.8-10.7 0-14.5 0-14.5-10.7-10.8-10.7-10.8-14.5 0-14.5 0-10.8 10.7-10.8 10.7 0 14.5 0 14.5 10.7 10.8 10.7 10.8 14.5 0 14.5 0 10.8-10.7zM406.5 398c0-4.7-0.1-8.5-0.3-8.5-0.1 0-4.1 3.8-8.7 8.5l-8.5 8.5 8.7 0 8.7 0 0-8.5zm-81.8-12.6c1.6-1.1 2.8-2.3 2.8-2.6 0-0.3-2.2-3-5-5.9-2.7-2.9-5-5.8-5-6.4 0-0.6 2.3-3.5 5-6.4 2.8-2.9 5-5.6 5-5.9 0-0.3-2-1.8-4.5-3.3-9-5.3-20.7-1.8-25.5 7.6-7 13.7 5.1 29 20.4 25.7 2.1-0.5 5.2-1.8 6.8-2.9zM436 386.8c3-1.7 7.2-6.4 8.4-9.6 6-15.8-11.8-30.8-26.4-22.3-2.5 1.5-4.5 2.9-4.5 3.3 0 0.3 2.3 3 5 5.9 2.8 2.9 5 5.8 5 6.4 0 0.6-2.4 3.6-5.2 6.7l-5.2 5.5 3 2.4c5 4 14.3 4.8 20 1.7zM332.5 370.3l0-12.2-6.2 6.2-6.2 6.2 5.9 6c3.3 3.3 6.1 6 6.2 6 0.2 0 0.3-5.5 0.3-12.2zm82.2-6-6.2-6.2 0 12.5 0 12.5 6.2-6.2 6.2-6.2-6.2-6.2zM343.5 343l8.5-8.5-8.7 0-8.7 0 0 8.5c0 4.7 0.1 8.5 0.3 8.5 0.1 0 4.1-3.8 8.7-8.5zm63 0 0-8.5-8.7 0-8.7 0 8.5 8.5c4.7 4.7 8.6 8.5 8.7 8.5 0.1 0 0.3-3.8 0.3-8.5zM332.7 340.8 333 333l7.8-0.3 7.8-0.3 0-2.9c0-6-4.3-12.5-10.2-15.6-4.2-2.2-12.4-1.8-17 0.8-8.5 4.8-11.5 16.1-6.7 24.7 2.8 5.1 9 9 14.1 9l3.7 0 0.3-7.7zm87.2 5.3c11.6-6.8 11.5-24.8-0.2-31.4-4.7-2.6-12.8-3-17-0.8-5.9 3.1-10.2 9.6-10.2 15.6l0 2.9 7.8 0.3L408 333l0.3 7.8 0.3 7.8 3.6 0c2 0 5.4-1.1 7.7-2.4zM376.7 326.3l-6.2-6.2-6.2 6.2-6.2 6.2 12.5 0 12.5 0-6.2-6.2zm-12.6-3.8c2.9-2.7 5.8-5 6.4-5 0.6 0 3.6 2.4 6.7 5.2l5.5 5.2 2.4-3c4.2-5.3 4.5-16.1 0.7-21.4-7.9-10.6-22.7-10.5-30.7 0.2-3.1 4.2-3 15.9 0.2 20.4 1.3 1.8 2.6 3.3 2.9 3.3 0.3 0 3-2.2 5.9-5zM167.4 450.9c5.3-9.1 5.8-10.4 3.8-10.4-3.2 0-13.9-6.3-19.4-11.3C143.8 421.7 141.2 417.7 137.5 407 130.2 386.3 121.7 377.9 103 373 99.8 372.2 96 371.5 94.7 371.5c-1.3 0-2.1-0.4-1.7-1 0.3-0.5 1.6-1 2.8-1 8 0 22-6 28.5-12.3 5.7-5.5 8.5-10.4 13.1-23 3.1-8.5 4.8-11.7 9.2-16.7 6.4-7.4 14.1-13.1 20.9-15.6 2.7-1 5-2.1 5-2.5 0-0.4-2.3-4.5-5.1-9.2l-5.1-8.5-11.2 3.3C95.9 301.5 48.3 328.1 11.7 363l-8.4 8 11.2 10c37.3 33.2 80.9 57.9 128 72.5 7.4 2.3 14.6 4.6 16 5 1.4 0.5 2.8 0.9 3.2 0.9 0.4 0 3-3.8 5.8-8.5zM601 452.8c47.8-15.4 91.6-40.9 129-75l7.6-6.9-8.4-8c-36.8-35.3-87.8-63.3-145.4-79.7l-5.2-1.5-5.1 8.5c-2.8 4.7-5.1 8.8-5.1 9.2 0 0.4 2.2 1.5 5 2.5 6.8 2.4 14.5 8.2 20.9 15.6 4.4 5 6.1 8.2 9.2 16.7 4.6 12.6 7.3 17.4 13.1 23 6.5 6.3 20.5 12.3 28.5 12.3 5.1 0 2.7 1.7-4 2.8-13.8 2.3-25.5 9.9-31.5 20.5-1.6 2.8-4.3 9.2-6.1 14.1-3.7 10.7-6.4 14.7-14.4 22.2-5.5 5-16.2 11.3-19.4 11.3-2 0-1.5 1.3 3.8 10.3l5 8.5 7.2-2C589.7 456.3 596.6 454.3 601 452.8Zm-416.7-27.9 7.7-11-12.3-6.9c-15.1-8.5-26.2-16.4-38.7-27.4l-9.6-8.5 3.2-3.4c10.2-10.8 33.8-27.9 49.5-35.9 4-2.1 7.3-4 7.3-4.4 0-0.4-3.4-5.5-7.6-11.5-4.2-6-7.8-11.4-8.1-12.1-0.8-2-4-1.5-10.7 1.7-4.5 2.2-8.4 5.2-14.3 11.3-7.4 7.7-8.3 9-10.8 16.8-3.3 10.1-5.6 14.9-10.2 21.1-4.1 5.6-13.2 11.9-19.7 13.8-4.9 1.4-7 3-3.9 3 3.5 0 14.4 6 19.4 10.7 6.4 6 9 10.5 13.9 23.8 3.4 9.3 4.6 11.5 9.7 16.8 9.2 9.7 12.4 12 21.3 15.2 4.2 1.5 2.7 2.9 13.9-13.1zm393.3 10c4.3-2.2 7-4.5 14.2-12.1 5.1-5.4 6.3-7.5 9.7-16.8 4.6-12.8 7.3-17.6 13.1-23.3 4.5-4.4 16.6-11.2 20-11.2 3.2 0 1.1-1.6-3.8-3-6.5-1.8-15.7-8.2-19.7-13.8-4.6-6.3-6.8-11-10.2-21.2-2.7-8.1-3.2-8.9-11.9-17.6-7.4-7.4-10.3-9.6-15.6-11.7l-6.5-2.6-1.5 2.2c-0.8 1.2-4.8 6.8-8.7 12.5-4 5.7-7.2 10.7-7.2 11 0 0.4 3.5 2.4 7.7 4.6 15.5 8 36.9 23.4 47.5 34.2l4.7 4.8-8.7 7.8c-14.8 13.1-29.9 23.6-45.9 31.7l-6.2 3.1 5.3 7.2c2.9 4 7 9.8 9.1 12.9l3.8 5.7 3.8-1.3c2.1-0.7 5.3-2.1 7.2-3.1zm-311.5-9 3.2-6.4-6 0c-7.6 0-19.9-2.5-25.8-5.3-7.4-3.4-14.5-11.4-17.1-19.2-4.6-13.7-11.8-20.5-24.6-22.9-6.2-1.2-6.6-1.4-3.9-2.1 9.4-2.3 11.3-2.9 14.5-4.5 6.5-3.3 10.8-9.5 14.4-20.5 2.1-6.3 10.9-15.4 18-18.5 5.7-2.5 17.8-4.9 25.4-4.9l5.2 0-3.5-6.2c-4.1-7.3-3-7.2-21.5-3.1-38.4 8.4-77 28-103.5 52.7l-6 5.6 6.4 6.1c21 20.1 55.6 39.4 86.9 48.4 10.4 3 29.7 7.3 32.7 7.3 1.5 0 2.8-1.7 5.2-6.4zm226.1 4.1C522.4 423.6 549.8 412.5 573.5 396.8 583.7 390.1 599.9 377.1 604 372.5l2-2.3-6-5.5c-23.3-21.4-55.6-39.3-88-48.7-8.8-2.6-33.6-7.9-33.9-7.3-0.1 0.2-1.6 3.1-3.4 6.5l-3.2 6.3 5.2 0c7.5 0.1 19.7 2.4 25.3 4.9 7.1 3.1 16 12.2 18 18.5 5 15.2 12.1 22 25.2 24.1 6.2 1 5.9 1.9-1.1 3.2-11.9 2.2-19.3 9.3-23.8 22.7-2.6 7.7-9.7 15.8-17.1 19.2-5.9 2.8-18.2 5.3-25.8 5.3l-6 0 3.2 6.4c1.7 3.5 3.7 6.5 4.4 6.5 0.7 0 6.6-1.1 13.1-2.4zm-218.7-14.1c0.7-0.9 3.4-2.8 6-4.3 4.2-2.4 4.6-2.9 3.8-5-0.6-1.7-1.3-2.2-2.6-1.7-1 0.4-4.3 1.1-7.3 1.7-15.2 2.7-31.9-6.3-38.7-20.9C232.4 380.8 232 378.7 232 370.5c0-8.5 0.3-10.1 2.9-15.4 3.7-7.6 10.1-14 17.4-17.4C257.2 335.4 259.3 335 267.5 335c5.2 0 10.7 0.4 12.2 0.9 2.4 0.7 2.9 0.5 3.6-1.5 0.8-2.1 0.4-2.6-3.2-4.7-2.3-1.3-5.1-3.3-6.3-4.4-2-1.9-3-2-10.9-1.4-10.5 0.8-20.1 2.9-25.1 5.5-6.1 3.2-12.9 10.9-15.1 17.1-4.1 12-8.6 17.7-17.1 21.9l-4.4 2.2 4.4 2c8.2 3.6 13.3 10.3 17.3 22.5 2 6 10.8 15.2 17.2 17.8 9.6 4 31 5.9 33.5 2.9zm215.1 0.1c11.4-2 15.1-3.7 21.9-10.2 4.3-4.1 6.2-6.9 7.5-10.7 4-12.1 9.1-18.8 17.3-22.5l4.4-2-4.4-2.2c-8.5-4.3-12.9-10-17.1-21.9-2.1-6.2-9-14-15.1-17.1-5.1-2.6-14.7-4.7-25.1-5.5-7.9-0.6-8.9-0.5-10.9 1.4-1.2 1.1-4.1 3.1-6.3 4.4-3.6 2.1-4 2.6-3.2 4.7 0.7 2 1.3 2.2 3.6 1.5C462.8 335.4 468.3 335 473.5 335c8.2 0 10.3 0.4 15.2 2.7 7.3 3.4 13.7 9.8 17.4 17.4C508.7 360.4 509 362 509 370.5c0 8.2-0.4 10.3-2.7 15.2-6.8 14.6-23.5 23.6-38.7 20.9-3.1-0.5-6.4-1.3-7.3-1.7-1.3-0.5-2 0-2.6 1.7-0.8 2.1-0.4 2.6 3.8 5 2.6 1.5 5.3 3.4 6 4.3 1.7 2.1 9.9 2.1 21.3 0.1zm-210.8-12.6c2.7-0.8 3.7-1.5 3.3-2.5-3.2-8.4-4.1-14.7-4.1-30.4 0-15.5 0.9-22.2 4-30.4 0.8-2.1-8.4-4-16-3.4-3.4 0.3-8.3 1.4-10.9 2.6-6.5 2.9-14.2 10.4-17.4 17.1-2.3 4.8-2.7 6.9-2.7 14.1 0 7.1 0.4 9.4 2.6 14 4.2 8.9 12.6 16.2 21.9 19.1 3.8 1.1 15 1.1 19.3-0.1zm210.5-2.3c6.8-3.5 12.4-9.3 15.9-16.5 2.4-4.9 2.8-6.8 2.7-14.2 0-10.6-3-17.4-10.5-24.4-6.2-5.8-12.5-8.7-20.5-9.3-7.6-0.6-16.8 1.3-16 3.4 3.1 8.1 4 14.8 4 30.4 0 15.7-0.8 22-4.1 30.4-0.9 2.3 4.9 3.6 14.6 3.2 6.9-0.2 9.5-0.8 13.8-3zM290.5 320.9c3.2-5.2 8.6-11.9 13.5-16.9 5-5 11.7-10.3 16.9-13.5 4.8-2.9 8.6-5.6 8.6-6 0-1.7-6.6-10.3-10-13-6.8-5.4-12.6-7.4-21.5-7.4-6.5 0-9.1 0.5-13.6 2.6-7.9 3.6-13.3 8.9-17.1 16.6-2.9 5.8-3.3 7.6-3.2 14.6 0 8.9 2.6 16 8 22.4 2.6 3.1 10.8 9.1 12.5 9.1 0.4 0 3-3.9 5.9-8.6zm171.1 5.8c5.7-3.6 9.6-8.2 12.8-15.2 2.1-4.4 2.6-7.1 2.6-13.5 0-7.1-0.4-8.8-3.2-14.6-3.8-7.7-9.3-13-17.1-16.6-4.6-2.1-7.1-2.6-13.6-2.6-8.9 0-14.7 2-21.5 7.4-3.4 2.7-10 11.3-10 13 0 0.4 3.9 3 8.6 6 11.3 6.9 23.5 19.1 30.4 30.4 2.9 4.8 5.6 8.6 5.9 8.6 0.4 0 2.7-1.3 5.1-2.8zm-247.2-8.7c0.2-0.2-2.5-3.6-6.2-7.4-8.5-9-16-19.6-20.6-29.1-3.5-7.2-3.6-8-4-20.3l-0.4-12.8 5.1-11.3c2.8-6.2 5.6-13.9 6.2-17.1 1.9-10-0.7-19.6-8.2-31.1l-4.9-7.6 6.3 4.3c11.9 8.1 22.9 11 32.9 8.9 2.9-0.6 10.5-3.4 16.7-6.2l11.4-5.1 12.6 0.4c12 0.4 12.9 0.5 20.1 4 9.3 4.4 19.2 11.5 28.8 20.3 4 3.7 7.4 6.6 7.6 6.4 0.2-0.2 2.2-4.8 4.4-10.2l4-9.8-5.1-3.8C286.4 165.1 244.3 144.6 204.2 133.6 181.3 127.4 148.8 122.5 129.8 122.5l-7.2 0 0 7.8c0 26.5 7.2 65.3 17.7 95.7 11 31.8 29.4 66.9 48.6 92.9l5.6 7.6 9.8-4c5.4-2.2 10-4.2 10.2-4.4zm340-2.3c20-28.1 38.7-65.2 49.1-97.7 8.8-27.7 15-64 15-88.3l0-7.2-8 0c-17.4 0-46.2 4.1-68.5 9.6-41.4 10.4-85.3 31.4-122.2 58.5l-5.2 3.8 4.1 9.8c2.2 5.4 4.2 9.9 4.4 10.1 0.2 0.2 3.6-2.7 7.6-6.4 9.5-8.9 19.5-15.9 28.8-20.3 7.2-3.4 8.1-3.6 20.1-4l12.6-0.4 11.4 5.1c6.3 2.8 13.8 5.6 16.7 6.2 10 2.2 21-0.8 32.9-8.9l6.3-4.3-4.9 7.6c-7.5 11.5-10 21.1-8.2 31.1 0.6 3.2 3.4 10.9 6.2 17.1l5.1 11.3-0.4 12.8c-0.3 12.3-0.5 13.1-4 20.3-4.6 9.5-12.1 20.1-20.7 29.2-3.7 3.9-6.2 7.3-5.7 7.5 0.6 0.2 5.1 2.1 10 4.2 5 2.1 9.3 3.6 9.7 3.4 0.4-0.2 3.9-4.8 7.7-10.1zM72.6 315.4c19.5-11.5 47.5-23.3 75.4-31.8 6.6-2 12.1-4 12.3-4.4 0.1-0.4-1.5-4.3-3.7-8.7-11.4-22.7-22.8-53.7-28-76.4l-2.7-11.9-3.1 3.9C117.9 192.4 105.1 212.2 99.5 222.5 86.1 246.7 75.5 275 69.1 303.6 66.5 315 66 318.5 67 318.5c0.3 0 2.8-1.4 5.7-3.1zm601.4-1.5C671.2 294.8 660.9 262.8 650.2 239.5 643.3 224.4 627.1 197.5 618.3 186.2l-3-3.8-4.3 16.8c-6.6 25.8-17.7 55.2-28 74.1-2.4 4.4-3.1 6.4-2.2 6.7 0.7 0.2 6.7 2 13.4 4 25 7.3 57 21 74.8 31.9 2.2 1.3 4.4 2.5 4.9 2.5 0.5 0.1 0.6-2 0.2-4.5zM232 312.3c0.3-0.3-2.2-6.1-5.4-12.9-12.8-26.7-19.8-53.7-21.7-83.8l-0.7-11.4 10.9 0.7c31.2 2 57 8.7 85.3 22.1 8.5 4.1 11.6 5.1 12.2 4.2 0.4-0.7 1.6-4.2 2.5-7.7l1.7-6.4-6.4-6C306.9 207.9 300.9 202.9 297 200 281.6 188.5 273.7 185.5 259.1 185.5c-9.6 0-10.5 0.2-17.6 3.6-20.7 9.9-32.6 10.7-47.3 3.3l-3.8-1.9 1.9 3.8c7.3 14.4 6.8 25.3-2.4 45.4l-4.6 10.1 0.4 11.7c0.3 11.5 0.4 11.9 4.6 20.2 4.7 9.5 11.1 18.2 20.7 28.6l6.6 7.1 7-2.2c3.8-1.2 7.2-2.5 7.5-2.7zM541.5 296.7c2.8-3.7 7-10.5 9.3-15.1 4.1-8.2 4.2-8.7 4.6-20.2l0.4-11.7-4.6-10.1c-9.2-20.1-9.8-31-2.4-45.4l1.9-3.8-3.8 1.9C540.9 195.4 532.6 197.5 527 197.5c-6.6 0-13.5-2.1-25.8-7.7l-9.8-4.5-11.2 0.4c-13 0.4-18.7 2.3-30.4 10.1-8 5.3-24.1 19.1-25 21.4-0.5 1.3 3.3 15.3 4.1 15.3 0.2 0 6-2.7 12.9-6 15.6-7.5 35.3-14.1 51.7-17.4 12.7-2.6 41.5-5.4 42.7-4.2 1.2 1.2-1.7 29.9-4.3 42.6-3.3 16.5-10.1 36.6-17.5 51.9-3.3 6.8-5.7 12.6-5.4 12.9 0.3 0.3 3.6 1.5 7.3 2.7l6.7 2.2 6.7-6.9c3.7-3.8 9-10 11.8-13.6zm-299.8 13.7 5.5-1.1-0.5-9.4c-0.5-9.2-0.4-9.6 3.2-17.4 2-4.4 3.9-10 4.3-12.3 0.8-5.5-1.6-13.9-5.4-19.2-4.7-6.5-4.6-6.6 1.6-2.6 11.5 7.5 18.5 7.8 32.1 1.6 7.8-3.6 8.2-3.6 17.3-3.2l9.3 0.5 1.2-5.5c0.6-3 0.9-5.9 0.6-6.4-0.8-1.4-13.3-7.4-25.2-12.3C262.9 213.7 234.4 207.5 214.6 207.5l-7.7 0 0.3 6.8c1 20.5 4.9 41.1 11.4 60.1 4 11.7 15.6 37.2 16.8 37.2 0.4 0 3.2-0.5 6.2-1.1zM511.8 299.7C525 272.1 533.5 239.2 533.5 215.5l0-8.3-12.2 0.6c-26.5 1.3-51.7 8.1-79.7 21.3-6.3 3-11.6 5.6-11.8 5.8-0.2 0.2 0.2 3.1 0.9 6.3l1.2 6 9.3-0.5c9.1-0.5 9.5-0.4 17.3 3.2 13.6 6.2 20.6 5.9 32.1-1.6 6.2-4 6.3-3.9 1.6 2.6-3.8 5.3-6.2 13.7-5.4 19.2 0.3 2.4 2.2 7.9 4.3 12.3 3.6 7.8 3.6 8.2 3.2 17.4l-0.5 9.4 4.6 1c2.5 0.6 5.3 1.1 6.2 1.1 1.1 0.1 3.4-3.6 7.3-11.7zM258 307l4-0.6 0-8.7c0-7.3 0.4-9.6 2.7-14.4 3.7-7.9 9.9-14.2 17.7-18.1 5.9-2.9 7.5-3.2 15.3-3.2l8.7 0 1-5.5c0.6-3 0.6-5.9 0.2-6.4-0.5-0.5-4.2-1.1-8.3-1.4-6.9-0.4-8-0.2-15.7 3.3-9.9 4.5-18.1 5.5-24.9 3.1-2.5-0.9-4.6-1.4-4.7-1.3-0.2 0.2 0.4 2.4 1.3 5.1 2.3 6.8 1.4 14.3-3 24.2-2.8 6.4-3.6 9.4-3.6 14.2 0 7.6 1.4 11.5 3.8 10.8 1-0.3 3.5-0.8 5.7-1.1zm233.5-1.1c2.1-5.7 1.2-14.2-2.6-22.8-4.4-10-5.3-17.5-3-24.2 0.9-2.6 1.5-4.9 1.3-5.1-0.2-0.2-2.3 0.4-4.7 1.3-6.8 2.4-15 1.3-24.9-3.1-7.8-3.5-8.8-3.7-15.7-3.3-4.1 0.3-7.8 0.9-8.3 1.4-0.5 0.5-0.4 3.4 0.2 6.4l1 5.5 8.7 0c7.7 0 9.3 0.3 15.3 3.2 7.8 3.9 14 10.1 17.7 18.1 2.2 4.8 2.7 7.1 2.7 14.4l0 8.7 5 0.9c2.8 0.5 5.3 1 5.8 1 0.4 0.1 1.2-1 1.8-2.4zM335.8 280.9c-0.1-1-0.6-4.3-1.1-7.4-2.6-15.6 5.7-31.4 20.4-38.6 5.3-2.6 7-2.9 15.4-2.9 8.4 0 10.2 0.3 15.4 2.9 16.9 8.2 24.9 27.3 19 45.6-0.5 1.5 0 2.2 1.7 2.8 2 0.8 2.6 0.3 5-3.8 1.5-2.6 3.4-5.3 4.3-6 2.9-2.4 1.3-21.4-2.6-32C410.3 233.8 402 225.1 395.1 222.9 383 218.9 375.2 212.8 372.4 205.1 371.7 203.1 370.8 201.5 370.5 201.5c-0.3 0-1.2 1.6-1.9 3.6-2.8 7.7-10.6 13.8-22.7 17.8-3.8 1.2-6.6 3.2-10.6 7.4-6.3 6.6-9.1 13-10.7 24.6-1.8 13.2-1.5 16 2.3 21.1 1.9 2.5 3.7 5.4 4.1 6.5 0.5 1.6 1.1 1.8 2.8 1.1 1.3-0.5 2.1-1.6 2-2.7zM348.5 278.8c4.9-1.3 10.3-1.8 22-1.8 14.7 0 18.7 0.5 30.1 4 4.1 1.2 5.3-15.8 1.8-25.3-3.2-8.8-12.4-17.4-21.3-20.2-8.5-2.6-12.6-2.6-21.1 0-9 2.8-18.1 11.4-21.3 20.2-3.5 9.5-2.3 26.5 1.8 25.3 0.9-0.3 4.5-1.3 8.1-2.3zM322.6 253.5c1.8-11.8 4.4-17.7 11.2-24.7 4.5-4.7 7.2-6.6 11.1-7.9 7.5-2.5 13.8-5.8 16.8-9.1 3.4-3.6 6.6-10.8 7.4-16.8 0.3-2.5 1-4.6 1.4-4.6 0.4 0 1 2.1 1.4 4.6 0.8 5.9 4 13.1 7.4 16.8 3.1 3.2 9.3 6.6 16.7 9 6.2 2 15.4 10.9 18.5 17.9 2.6 5.9 5 18.1 5 25.3l0 5.4 6.3-3.2c3.4-1.8 6.4-3.3 6.6-3.4 1.1-0.6-5.7-28.7-10-41.7C412.2 190.6 396 162.5 376.3 141l-5.5-6-2.3 2c-4.6 4.1-17.5 20.3-24.3 30.5-14.8 22.5-27.5 53.6-33.2 81.8-1.5 7.3-2.5 13.4-2.3 13.5 0.2 0.1 3.1 1.6 6.4 3.3l6 3.1 0.2-4.1c0.1-2.2 0.7-7.5 1.4-11.6zm8.5-68.2c7.7-15.2 21-34.2 32.3-46l6.9-7.2 4.7 4.5c10.5 10.2 24.6 29.6 33.5 46.4l5.1 9.5 7.2-5.3c4-2.9 9.7-7 12.9-9l5.7-3.8-1.5-4.1c-2.5-7.2-6-12.1-14.2-19.9-7.2-6.9-8.7-7.8-16.3-10.3-19.9-6.6-29.3-14.6-34.5-29.2-1-2.9-2.1-5.2-2.4-5.2-0.3 0-1.4 2.4-2.4 5.3-5.2 14.7-14.6 22.7-34.5 29.2-7.6 2.5-9.1 3.5-16.3 10.3-8.2 7.8-11.6 12.7-14.2 19.9l-1.5 4.2 9.7 6.5c5.3 3.6 11 7.7 12.7 9 1.7 1.4 3.1 2.5 3.2 2.5 0.1 0 1.9-3.2 3.9-7.2zm-30.1-15.7c0.7-3.3 6.6-13.4 9.8-17 6-6.6 13.8-12 20.4-14.1 23.6-7.7 33.7-18.1 37.5-38.2 0.7-3.7 1.5-6.7 1.8-6.7 0.3 0 1.1 3 1.8 6.7 3.8 20.1 13.9 30.5 37.5 38.2 6.5 2.1 14.3 7.6 20.4 14.1 3.3 3.6 9.1 13.7 9.8 17 0.4 1.6 1 2.9 1.5 2.9 0.5 0 4.7-2.3 9.4-5l8.5-5-1.5-5.2C441.3 99 414.1 49.7 377 10.3l-6.7-7.1-5.9 6.4C326.3 51 299.3 99.9 283.7 155.2l-2 7.2 8.2 4.9c4.5 2.7 8.7 5 9.3 5 0.6 0 1.5-1.2 1.8-2.8zm-17.7-20.9c5.9-20.3 13.3-39 24.3-61 7.3-14.7 10.2-21.2 9.1-21.2-0.8 0-6.7 1.2-13.1 2.6C275 75.5 246.7 86.1 222.5 99.5 212.3 105.1 192.4 117.9 186.2 122.8l-3.8 3 16.8 4.3c25 6.3 48.2 15 70.3 26.3 5.2 2.7 9.7 4.7 9.9 4.5 0.2-0.2 2-5.7 3.8-12.1zM493.5 146.1c16.2-6.8 29.9-11.4 48.3-16.1l16.8-4.3-3.8-3C548.6 117.9 528.7 105.1 518.5 99.5 503.1 91 487.7 84.2 469 77.8 453.5 72.5 424.2 65.5 422.9 66.7c-0.3 0.3 0.9 2.9 2.6 5.8 11.8 20 25 51.2 32 75.9 1.7 5.8 3.2 11.1 3.4 11.7 0.3 0.7 4.3-0.8 11.2-4.2 5.9-3 15.5-7.4 21.3-9.8z" fill="#000"/></svg>